<svg width="400" height="600" viewBox="0 0 400 600" fill="none" xmlns="http://www.w3.org/2000/svg">
<g filter="url(#filter0_d_32_2)">
<rect x="20" y="12" width="360" height="560" rx="12" fill="white"/>
</g>
<path d="M178.255 35.648V38.216H170.563V43.352H177.055V45.932H170.563V53H167.311V35.648H178.255ZM183.775 40.688V53H180.811V40.688H183.775ZM184.219 37.1C184.219 37.356 184.167 37.596 184.063 37.82C183.959 38.044 183.819 38.24 183.643 38.408C183.475 38.576 183.275 38.712 183.043 38.816C182.811 38.912 182.563 38.96 182.299 38.96C182.043 38.96 181.799 38.912 181.567 38.816C181.343 38.712 181.147 38.576 180.979 38.408C180.811 38.24 180.675 38.044 180.571 37.82C180.475 37.596 180.427 37.356 180.427 37.1C180.427 36.836 180.475 36.588 180.571 36.356C180.675 36.124 180.811 35.924 180.979 35.756C181.147 35.588 181.343 35.456 181.567 35.36C181.799 35.256 182.043 35.204 182.299 35.204C182.563 35.204 182.811 35.256 183.043 35.36C183.275 35.456 183.475 35.588 183.643 35.756C183.819 35.924 183.959 36.124 184.063 36.356C184.167 36.588 184.219 36.836 184.219 37.1ZM190.291 35.168V53H187.327V35.168H190.291ZM197.694 53.192C196.63 53.192 195.81 52.892 195.234 52.292C194.658 51.684 194.37 50.848 194.37 49.784V42.908H193.122C192.962 42.908 192.822 42.856 192.702 42.752C192.59 42.648 192.534 42.492 192.534 42.284V41.108L194.514 40.784L195.138 37.424C195.17 37.264 195.242 37.14 195.354 37.052C195.474 36.964 195.622 36.92 195.798 36.92H197.334V40.796H200.574V42.908H197.334V49.58C197.334 49.964 197.43 50.264 197.622 50.48C197.814 50.696 198.07 50.804 198.39 50.804C198.574 50.804 198.726 50.784 198.846 50.744C198.974 50.696 199.082 50.648 199.17 50.6C199.266 50.552 199.35 50.508 199.422 50.468C199.494 50.42 199.566 50.396 199.638 50.396C199.726 50.396 199.798 50.42 199.854 50.468C199.91 50.508 199.97 50.572 200.034 50.66L200.922 52.1C200.49 52.46 199.994 52.732 199.434 52.916C198.874 53.1 198.294 53.192 197.694 53.192ZM202.932 53V40.688H204.672C204.976 40.688 205.188 40.744 205.308 40.856C205.428 40.968 205.508 41.16 205.548 41.432L205.728 42.92C206.168 42.16 206.684 41.56 207.276 41.12C207.868 40.68 208.532 40.46 209.268 40.46C209.876 40.46 210.38 40.6 210.78 40.88L210.396 43.1C210.372 43.244 210.32 43.348 210.24 43.412C210.16 43.468 210.052 43.496 209.916 43.496C209.796 43.496 209.632 43.468 209.424 43.412C209.216 43.356 208.94 43.328 208.596 43.328C207.98 43.328 207.452 43.5 207.012 43.844C206.572 44.18 206.2 44.676 205.896 45.332V53H202.932ZM217.817 40.496C218.593 40.496 219.305 40.62 219.953 40.868C220.609 41.116 221.173 41.48 221.645 41.96C222.117 42.432 222.485 43.016 222.749 43.712C223.013 44.4 223.145 45.188 223.145 46.076C223.145 46.3 223.133 46.488 223.109 46.64C223.093 46.784 223.057 46.9 223.001 46.988C222.953 47.068 222.885 47.128 222.797 47.168C222.709 47.2 222.597 47.216 222.461 47.216H214.853C214.941 48.48 215.281 49.408 215.873 50C216.465 50.592 217.249 50.888 218.225 50.888C218.705 50.888 219.117 50.832 219.461 50.72C219.813 50.608 220.117 50.484 220.373 50.348C220.637 50.212 220.865 50.088 221.057 49.976C221.257 49.864 221.449 49.808 221.633 49.808C221.753 49.808 221.857 49.832 221.945 49.88C222.033 49.928 222.109 49.996 222.173 50.084L223.037 51.164C222.709 51.548 222.341 51.872 221.933 52.136C221.525 52.392 221.097 52.6 220.649 52.76C220.209 52.912 219.757 53.02 219.293 53.084C218.837 53.148 218.393 53.18 217.961 53.18C217.105 53.18 216.309 53.04 215.573 52.76C214.837 52.472 214.197 52.052 213.653 51.5C213.109 50.94 212.681 50.252 212.369 49.436C212.057 48.612 211.901 47.66 211.901 46.58C211.901 45.74 212.037 44.952 212.309 44.216C212.581 43.472 212.969 42.828 213.473 42.284C213.985 41.732 214.605 41.296 215.333 40.976C216.069 40.656 216.897 40.496 217.817 40.496ZM217.877 42.62C217.013 42.62 216.337 42.864 215.849 43.352C215.361 43.84 215.049 44.532 214.913 45.428H220.481C220.481 45.044 220.429 44.684 220.325 44.348C220.221 44.004 220.061 43.704 219.845 43.448C219.629 43.192 219.357 42.992 219.029 42.848C218.701 42.696 218.317 42.62 217.877 42.62ZM232.857 43.088C232.777 43.216 232.693 43.308 232.605 43.364C232.517 43.412 232.405 43.436 232.269 43.436C232.125 43.436 231.969 43.396 231.801 43.316C231.641 43.236 231.453 43.148 231.237 43.052C231.021 42.948 230.773 42.856 230.493 42.776C230.221 42.696 229.897 42.656 229.521 42.656C228.937 42.656 228.477 42.78 228.141 43.028C227.805 43.276 227.637 43.6 227.637 44C227.637 44.264 227.721 44.488 227.889 44.672C228.065 44.848 228.293 45.004 228.573 45.14C228.861 45.276 229.185 45.4 229.545 45.512C229.905 45.616 230.273 45.732 230.649 45.86C231.025 45.988 231.393 46.136 231.753 46.304C232.113 46.464 232.433 46.672 232.713 46.928C233.001 47.176 233.229 47.476 233.397 47.828C233.573 48.18 233.661 48.604 233.661 49.1C233.661 49.692 233.553 50.24 233.337 50.744C233.121 51.24 232.805 51.672 232.389 52.04C231.973 52.4 231.457 52.684 230.841 52.892C230.233 53.092 229.533 53.192 228.741 53.192C228.317 53.192 227.901 53.152 227.493 53.072C227.093 53 226.705 52.896 226.329 52.76C225.961 52.624 225.617 52.464 225.297 52.28C224.985 52.096 224.709 51.896 224.469 51.68L225.153 50.552C225.241 50.416 225.345 50.312 225.465 50.24C225.585 50.168 225.737 50.132 225.921 50.132C226.105 50.132 226.277 50.184 226.437 50.288C226.605 50.392 226.797 50.504 227.013 50.624C227.229 50.744 227.481 50.856 227.769 50.96C228.065 51.064 228.437 51.116 228.885 51.116C229.237 51.116 229.537 51.076 229.785 50.996C230.041 50.908 230.249 50.796 230.409 50.66C230.577 50.524 230.697 50.368 230.769 50.192C230.849 50.008 230.889 49.82 230.889 49.628C230.889 49.34 230.801 49.104 230.625 48.92C230.457 48.736 230.229 48.576 229.941 48.44C229.661 48.304 229.337 48.184 228.969 48.08C228.609 47.968 228.237 47.848 227.853 47.72C227.477 47.592 227.105 47.444 226.737 47.276C226.377 47.1 226.053 46.88 225.765 46.616C225.485 46.352 225.257 46.028 225.081 45.644C224.913 45.26 224.829 44.796 224.829 44.252C224.829 43.748 224.929 43.268 225.129 42.812C225.329 42.356 225.621 41.96 226.005 41.624C226.397 41.28 226.881 41.008 227.457 40.808C228.041 40.6 228.713 40.496 229.473 40.496C230.321 40.496 231.093 40.636 231.789 40.916C232.485 41.196 233.065 41.564 233.529 42.02L232.857 43.088Z" fill="#3366CC"/>
<rect x="36.5" y="496.5" width="327" height="47" rx="5.5" fill="white" stroke="#A5C3FF"/>
<path d="M182.737 514.432V516.144H177.609V519.352H181.649V521.008H177.609V524.28H182.737V526H175.441V514.432H182.737ZM184.838 526V519.28L184.126 519.168C183.971 519.141 183.846 519.088 183.75 519.008C183.659 518.928 183.614 518.816 183.614 518.672V517.864H184.838V517.256C184.838 516.787 184.907 516.365 185.046 515.992C185.19 515.619 185.392 515.301 185.654 515.04C185.92 514.779 186.243 514.579 186.622 514.44C187 514.301 187.427 514.232 187.902 514.232C188.28 514.232 188.632 514.283 188.958 514.384L188.918 515.376C188.907 515.531 188.835 515.627 188.702 515.664C188.568 515.701 188.414 515.72 188.238 515.72C188.003 515.72 187.792 515.747 187.606 515.8C187.424 515.848 187.27 515.936 187.142 516.064C187.014 516.187 186.915 516.352 186.846 516.56C186.782 516.763 186.75 517.016 186.75 517.32V517.864H188.886V519.272H186.814V526H184.838ZM190.447 526V519.28L189.735 519.168C189.58 519.141 189.455 519.088 189.359 519.008C189.268 518.928 189.223 518.816 189.223 518.672V517.864H190.447V517.256C190.447 516.787 190.516 516.365 190.655 515.992C190.799 515.619 191.002 515.301 191.263 515.04C191.53 514.779 191.852 514.579 192.231 514.44C192.61 514.301 193.036 514.232 193.511 514.232C193.89 514.232 194.242 514.283 194.567 514.384L194.527 515.376C194.516 515.531 194.444 515.627 194.311 515.664C194.178 515.701 194.023 515.72 193.847 515.72C193.612 515.72 193.402 515.747 193.215 515.8C193.034 515.848 192.879 515.936 192.751 516.064C192.623 516.187 192.524 516.352 192.455 516.56C192.391 516.763 192.359 517.016 192.359 517.32V517.864H194.495V519.272H192.423V526H190.447ZM202.136 526H201.248C201.062 526 200.915 525.973 200.808 525.92C200.702 525.861 200.622 525.747 200.568 525.576L200.392 524.992C200.184 525.179 199.979 525.344 199.776 525.488C199.579 525.627 199.374 525.744 199.16 525.84C198.947 525.936 198.72 526.008 198.48 526.056C198.24 526.104 197.974 526.128 197.68 526.128C197.334 526.128 197.014 526.083 196.72 525.992C196.427 525.896 196.174 525.755 195.96 525.568C195.752 525.381 195.59 525.149 195.472 524.872C195.355 524.595 195.296 524.272 195.296 523.904C195.296 523.595 195.376 523.291 195.536 522.992C195.702 522.688 195.974 522.416 196.352 522.176C196.731 521.931 197.235 521.728 197.864 521.568C198.494 521.408 199.275 521.317 200.208 521.296V520.816C200.208 520.267 200.091 519.861 199.856 519.6C199.627 519.333 199.291 519.2 198.848 519.2C198.528 519.2 198.262 519.237 198.048 519.312C197.835 519.387 197.648 519.472 197.488 519.568C197.334 519.659 197.19 519.741 197.056 519.816C196.923 519.891 196.776 519.928 196.616 519.928C196.483 519.928 196.368 519.893 196.272 519.824C196.176 519.755 196.099 519.669 196.04 519.568L195.68 518.936C196.624 518.072 197.763 517.64 199.096 517.64C199.576 517.64 200.003 517.72 200.376 517.88C200.755 518.035 201.075 518.253 201.336 518.536C201.598 518.813 201.795 519.147 201.928 519.536C202.067 519.925 202.136 520.352 202.136 520.816V526ZM198.296 524.768C198.499 524.768 198.686 524.749 198.856 524.712C199.027 524.675 199.187 524.619 199.336 524.544C199.491 524.469 199.638 524.379 199.776 524.272C199.92 524.16 200.064 524.029 200.208 523.88V522.496C199.632 522.523 199.15 522.573 198.76 522.648C198.376 522.717 198.067 522.808 197.832 522.92C197.598 523.032 197.43 523.163 197.328 523.312C197.232 523.461 197.184 523.624 197.184 523.8C197.184 524.147 197.286 524.395 197.488 524.544C197.696 524.693 197.966 524.768 198.296 524.768ZM209.847 519.528C209.789 519.603 209.73 519.661 209.671 519.704C209.618 519.747 209.538 519.768 209.431 519.768C209.33 519.768 209.231 519.739 209.135 519.68C209.039 519.616 208.925 519.547 208.791 519.472C208.658 519.392 208.498 519.323 208.311 519.264C208.13 519.2 207.903 519.168 207.631 519.168C207.285 519.168 206.981 519.232 206.719 519.36C206.458 519.483 206.239 519.661 206.063 519.896C205.893 520.131 205.765 520.416 205.679 520.752C205.594 521.083 205.551 521.459 205.551 521.88C205.551 522.317 205.597 522.707 205.687 523.048C205.783 523.389 205.919 523.677 206.095 523.912C206.271 524.141 206.485 524.317 206.735 524.44C206.986 524.557 207.269 524.616 207.583 524.616C207.898 524.616 208.151 524.579 208.343 524.504C208.541 524.424 208.706 524.339 208.839 524.248C208.973 524.152 209.087 524.067 209.183 523.992C209.285 523.912 209.397 523.872 209.519 523.872C209.679 523.872 209.799 523.933 209.879 524.056L210.447 524.776C210.229 525.032 209.991 525.248 209.735 525.424C209.479 525.595 209.213 525.733 208.935 525.84C208.663 525.941 208.381 526.013 208.087 526.056C207.794 526.099 207.503 526.12 207.215 526.12C206.709 526.12 206.231 526.027 205.783 525.84C205.335 525.648 204.943 525.371 204.607 525.008C204.277 524.645 204.013 524.203 203.815 523.68C203.623 523.152 203.527 522.552 203.527 521.88C203.527 521.277 203.613 520.72 203.783 520.208C203.959 519.691 204.215 519.245 204.551 518.872C204.887 518.493 205.303 518.197 205.799 517.984C206.295 517.771 206.866 517.664 207.511 517.664C208.125 517.664 208.661 517.763 209.119 517.96C209.583 518.157 209.999 518.44 210.367 518.808L209.847 519.528ZM215.096 517.664C215.614 517.664 216.088 517.747 216.52 517.912C216.958 518.077 217.334 518.32 217.648 518.64C217.963 518.955 218.208 519.344 218.384 519.808C218.56 520.267 218.648 520.792 218.648 521.384C218.648 521.533 218.64 521.659 218.624 521.76C218.614 521.856 218.59 521.933 218.552 521.992C218.52 522.045 218.475 522.085 218.416 522.112C218.358 522.133 218.283 522.144 218.192 522.144H213.12C213.179 522.987 213.406 523.605 213.8 524C214.195 524.395 214.718 524.592 215.368 524.592C215.688 524.592 215.963 524.555 216.192 524.48C216.427 524.405 216.63 524.323 216.8 524.232C216.976 524.141 217.128 524.059 217.256 523.984C217.39 523.909 217.518 523.872 217.64 523.872C217.72 523.872 217.79 523.888 217.848 523.92C217.907 523.952 217.958 523.997 218 524.056L218.576 524.776C218.358 525.032 218.112 525.248 217.84 525.424C217.568 525.595 217.283 525.733 216.984 525.84C216.691 525.941 216.39 526.013 216.08 526.056C215.776 526.099 215.48 526.12 215.192 526.12C214.622 526.12 214.091 526.027 213.6 525.84C213.11 525.648 212.683 525.368 212.32 525C211.958 524.627 211.672 524.168 211.464 523.624C211.256 523.075 211.152 522.44 211.152 521.72C211.152 521.16 211.243 520.635 211.424 520.144C211.606 519.648 211.864 519.219 212.2 518.856C212.542 518.488 212.955 518.197 213.44 517.984C213.931 517.771 214.483 517.664 215.096 517.664ZM215.136 519.08C214.56 519.08 214.11 519.243 213.784 519.568C213.459 519.893 213.251 520.355 213.16 520.952H216.872C216.872 520.696 216.838 520.456 216.768 520.232C216.699 520.003 216.592 519.803 216.448 519.632C216.304 519.461 216.123 519.328 215.904 519.232C215.686 519.131 215.43 519.08 215.136 519.08ZM220.251 526V517.792H221.411C221.614 517.792 221.755 517.829 221.835 517.904C221.915 517.979 221.969 518.107 221.995 518.288L222.115 519.28C222.409 518.773 222.753 518.373 223.147 518.08C223.542 517.787 223.985 517.64 224.475 517.64C224.881 517.64 225.217 517.733 225.483 517.92L225.227 519.4C225.211 519.496 225.177 519.565 225.123 519.608C225.07 519.645 224.998 519.664 224.907 519.664C224.827 519.664 224.718 519.645 224.579 519.608C224.441 519.571 224.257 519.552 224.027 519.552C223.617 519.552 223.265 519.667 222.971 519.896C222.678 520.12 222.43 520.451 222.227 520.888V526H220.251Z" fill="#3366CC"/>
<g filter="url(#filter1_d_32_2)">
<rect x="36" y="432" width="328" height="48" rx="6" fill="#3366CC"/>
</g>
<path d="M162.08 457.48V462H159.928V450.432H163.456C164.245 450.432 164.92 450.515 165.48 450.68C166.045 450.84 166.506 451.067 166.864 451.36C167.226 451.653 167.49 452.005 167.656 452.416C167.826 452.821 167.911 453.269 167.911 453.76C167.911 454.149 167.853 454.517 167.736 454.864C167.624 455.211 167.458 455.525 167.24 455.808C167.026 456.091 166.76 456.339 166.44 456.552C166.125 456.765 165.765 456.936 165.36 457.064C165.632 457.219 165.866 457.44 166.064 457.728L168.96 462H167.024C166.837 462 166.677 461.963 166.544 461.888C166.416 461.813 166.306 461.707 166.216 461.568L163.784 457.864C163.693 457.725 163.592 457.627 163.48 457.568C163.373 457.509 163.213 457.48 163 457.48H162.08ZM162.08 455.936H163.424C163.829 455.936 164.181 455.885 164.48 455.784C164.784 455.683 165.032 455.544 165.224 455.368C165.421 455.187 165.568 454.973 165.664 454.728C165.76 454.483 165.808 454.213 165.808 453.92C165.808 453.333 165.613 452.883 165.224 452.568C164.84 452.253 164.25 452.096 163.456 452.096H162.08V455.936ZM173.62 453.664C174.137 453.664 174.612 453.747 175.044 453.912C175.481 454.077 175.857 454.32 176.172 454.64C176.487 454.955 176.732 455.344 176.908 455.808C177.084 456.267 177.172 456.792 177.172 457.384C177.172 457.533 177.164 457.659 177.148 457.76C177.137 457.856 177.113 457.933 177.076 457.992C177.044 458.045 176.999 458.085 176.94 458.112C176.881 458.133 176.807 458.144 176.716 458.144H171.644C171.703 458.987 171.929 459.605 172.324 460C172.719 460.395 173.241 460.592 173.892 460.592C174.212 460.592 174.487 460.555 174.716 460.48C174.951 460.405 175.153 460.323 175.324 460.232C175.5 460.141 175.652 460.059 175.78 459.984C175.913 459.909 176.041 459.872 176.164 459.872C176.244 459.872 176.313 459.888 176.372 459.92C176.431 459.952 176.481 459.997 176.524 460.056L177.1 460.776C176.881 461.032 176.636 461.248 176.364 461.424C176.092 461.595 175.807 461.733 175.508 461.84C175.215 461.941 174.913 462.013 174.604 462.056C174.3 462.099 174.004 462.12 173.716 462.12C173.145 462.12 172.615 462.027 172.124 461.84C171.633 461.648 171.207 461.368 170.844 461C170.481 460.627 170.196 460.168 169.988 459.624C169.78 459.075 169.676 458.44 169.676 457.72C169.676 457.16 169.767 456.635 169.948 456.144C170.129 455.648 170.388 455.219 170.724 454.856C171.065 454.488 171.479 454.197 171.964 453.984C172.455 453.771 173.007 453.664 173.62 453.664ZM173.66 455.08C173.084 455.08 172.633 455.243 172.308 455.568C171.983 455.893 171.775 456.355 171.684 456.952H175.396C175.396 456.696 175.361 456.456 175.292 456.232C175.223 456.003 175.116 455.803 174.972 455.632C174.828 455.461 174.647 455.328 174.428 455.232C174.209 455.131 173.953 455.08 173.66 455.08ZM184.543 455.528C184.484 455.603 184.425 455.661 184.367 455.704C184.313 455.747 184.233 455.768 184.127 455.768C184.025 455.768 183.927 455.739 183.831 455.68C183.735 455.616 183.62 455.547 183.487 455.472C183.353 455.392 183.193 455.323 183.007 455.264C182.825 455.2 182.599 455.168 182.327 455.168C181.98 455.168 181.676 455.232 181.415 455.36C181.153 455.483 180.935 455.661 180.759 455.896C180.588 456.131 180.46 456.416 180.375 456.752C180.289 457.083 180.247 457.459 180.247 457.88C180.247 458.317 180.292 458.707 180.383 459.048C180.479 459.389 180.615 459.677 180.791 459.912C180.967 460.141 181.18 460.317 181.431 460.44C181.681 460.557 181.964 460.616 182.279 460.616C182.593 460.616 182.847 460.579 183.039 460.504C183.236 460.424 183.401 460.339 183.535 460.248C183.668 460.152 183.783 460.067 183.879 459.992C183.98 459.912 184.092 459.872 184.215 459.872C184.375 459.872 184.495 459.933 184.575 460.056L185.143 460.776C184.924 461.032 184.687 461.248 184.431 461.424C184.175 461.595 183.908 461.733 183.631 461.84C183.359 461.941 183.076 462.013 182.783 462.056C182.489 462.099 182.199 462.12 181.911 462.12C181.404 462.12 180.927 462.027 180.479 461.84C180.031 461.648 179.639 461.371 179.303 461.008C178.972 460.645 178.708 460.203 178.511 459.68C178.319 459.152 178.223 458.552 178.223 457.88C178.223 457.277 178.308 456.72 178.479 456.208C178.655 455.691 178.911 455.245 179.247 454.872C179.583 454.493 179.999 454.197 180.495 453.984C180.991 453.771 181.561 453.664 182.207 453.664C182.82 453.664 183.356 453.763 183.815 453.96C184.279 454.157 184.695 454.44 185.063 454.808L184.543 455.528ZM186.4 462V450.112H188.376V454.68C188.696 454.376 189.048 454.131 189.432 453.944C189.816 453.757 190.266 453.664 190.784 453.664C191.232 453.664 191.629 453.741 191.976 453.896C192.322 454.045 192.61 454.259 192.84 454.536C193.074 454.808 193.25 455.136 193.368 455.52C193.49 455.899 193.552 456.317 193.552 456.776V462H191.576V456.776C191.576 456.275 191.458 455.888 191.224 455.616C190.994 455.339 190.648 455.2 190.184 455.2C189.842 455.2 189.522 455.277 189.224 455.432C188.925 455.587 188.642 455.797 188.376 456.064V462H186.4ZM198.886 453.664C199.403 453.664 199.878 453.747 200.31 453.912C200.747 454.077 201.123 454.32 201.438 454.64C201.752 454.955 201.998 455.344 202.174 455.808C202.35 456.267 202.438 456.792 202.438 457.384C202.438 457.533 202.43 457.659 202.414 457.76C202.403 457.856 202.379 457.933 202.342 457.992C202.31 458.045 202.264 458.085 202.206 458.112C202.147 458.133 202.072 458.144 201.982 458.144H196.91C196.968 458.987 197.195 459.605 197.59 460C197.984 460.395 198.507 460.592 199.158 460.592C199.478 460.592 199.752 460.555 199.982 460.48C200.216 460.405 200.419 460.323 200.59 460.232C200.766 460.141 200.918 460.059 201.046 459.984C201.179 459.909 201.307 459.872 201.43 459.872C201.51 459.872 201.579 459.888 201.638 459.92C201.696 459.952 201.747 459.997 201.79 460.056L202.366 460.776C202.147 461.032 201.902 461.248 201.63 461.424C201.358 461.595 201.072 461.733 200.774 461.84C200.48 461.941 200.179 462.013 199.87 462.056C199.566 462.099 199.27 462.12 198.982 462.12C198.411 462.12 197.88 462.027 197.39 461.84C196.899 461.648 196.472 461.368 196.11 461C195.747 460.627 195.462 460.168 195.254 459.624C195.046 459.075 194.942 458.44 194.942 457.72C194.942 457.16 195.032 456.635 195.214 456.144C195.395 455.648 195.654 455.219 195.99 454.856C196.331 454.488 196.744 454.197 197.23 453.984C197.72 453.771 198.272 453.664 198.886 453.664ZM198.926 455.08C198.35 455.08 197.899 455.243 197.574 455.568C197.248 455.893 197.04 456.355 196.95 456.952H200.662C200.662 456.696 200.627 456.456 200.558 456.232C200.488 456.003 200.382 455.803 200.238 455.632C200.094 455.461 199.912 455.328 199.694 455.232C199.475 455.131 199.219 455.08 198.926 455.08ZM204.04 462V453.792H205.2C205.403 453.792 205.544 453.829 205.624 453.904C205.704 453.979 205.758 454.107 205.784 454.288L205.904 455.28C206.198 454.773 206.542 454.373 206.936 454.08C207.331 453.787 207.774 453.64 208.264 453.64C208.67 453.64 209.006 453.733 209.272 453.92L209.016 455.4C209 455.496 208.966 455.565 208.912 455.608C208.859 455.645 208.787 455.664 208.696 455.664C208.616 455.664 208.507 455.645 208.368 455.608C208.23 455.571 208.046 455.552 207.816 455.552C207.406 455.552 207.054 455.667 206.76 455.896C206.467 456.12 206.219 456.451 206.016 456.888V462H204.04ZM216.34 455.528C216.281 455.603 216.222 455.661 216.164 455.704C216.11 455.747 216.03 455.768 215.924 455.768C215.822 455.768 215.724 455.739 215.628 455.68C215.532 455.616 215.417 455.547 215.284 455.472C215.15 455.392 214.99 455.323 214.804 455.264C214.622 455.2 214.396 455.168 214.124 455.168C213.777 455.168 213.473 455.232 213.212 455.36C212.95 455.483 212.732 455.661 212.556 455.896C212.385 456.131 212.257 456.416 212.172 456.752C212.086 457.083 212.044 457.459 212.044 457.88C212.044 458.317 212.089 458.707 212.18 459.048C212.276 459.389 212.412 459.677 212.588 459.912C212.764 460.141 212.977 460.317 213.228 460.44C213.478 460.557 213.761 460.616 214.076 460.616C214.39 460.616 214.644 460.579 214.836 460.504C215.033 460.424 215.198 460.339 215.332 460.248C215.465 460.152 215.58 460.067 215.676 459.992C215.777 459.912 215.889 459.872 216.012 459.872C216.172 459.872 216.292 459.933 216.372 460.056L216.94 460.776C216.721 461.032 216.484 461.248 216.228 461.424C215.972 461.595 215.705 461.733 215.428 461.84C215.156 461.941 214.873 462.013 214.58 462.056C214.286 462.099 213.996 462.12 213.708 462.12C213.201 462.12 212.724 462.027 212.276 461.84C211.828 461.648 211.436 461.371 211.1 461.008C210.769 460.645 210.505 460.203 210.308 459.68C210.116 459.152 210.02 458.552 210.02 457.88C210.02 457.277 210.105 456.72 210.276 456.208C210.452 455.691 210.708 455.245 211.044 454.872C211.38 454.493 211.796 454.197 212.292 453.984C212.788 453.771 213.358 453.664 214.004 453.664C214.617 453.664 215.153 453.763 215.612 453.96C216.076 454.157 216.492 454.44 216.86 454.808L216.34 455.528ZM218.197 462V450.112H220.173V454.68C220.493 454.376 220.845 454.131 221.229 453.944C221.613 453.757 222.063 453.664 222.581 453.664C223.029 453.664 223.426 453.741 223.773 453.896C224.119 454.045 224.407 454.259 224.637 454.536C224.871 454.808 225.047 455.136 225.165 455.52C225.287 455.899 225.349 456.317 225.349 456.776V462H223.373V456.776C223.373 456.275 223.255 455.888 223.021 455.616C222.791 455.339 222.445 455.2 221.981 455.2C221.639 455.2 221.319 455.277 221.021 455.432C220.722 455.587 220.439 455.797 220.173 456.064V462H218.197ZM230.682 453.664C231.2 453.664 231.674 453.747 232.106 453.912C232.544 454.077 232.92 454.32 233.234 454.64C233.549 454.955 233.794 455.344 233.97 455.808C234.146 456.267 234.234 456.792 234.234 457.384C234.234 457.533 234.226 457.659 234.21 457.76C234.2 457.856 234.176 457.933 234.138 457.992C234.106 458.045 234.061 458.085 234.002 458.112C233.944 458.133 233.869 458.144 233.778 458.144H228.706C228.765 458.987 228.992 459.605 229.386 460C229.781 460.395 230.304 460.592 230.954 460.592C231.274 460.592 231.549 460.555 231.778 460.48C232.013 460.405 232.216 460.323 232.386 460.232C232.562 460.141 232.714 460.059 232.842 459.984C232.976 459.909 233.104 459.872 233.226 459.872C233.306 459.872 233.376 459.888 233.434 459.92C233.493 459.952 233.544 459.997 233.586 460.056L234.162 460.776C233.944 461.032 233.698 461.248 233.426 461.424C233.154 461.595 232.869 461.733 232.57 461.84C232.277 461.941 231.976 462.013 231.666 462.056C231.362 462.099 231.066 462.12 230.778 462.12C230.208 462.12 229.677 462.027 229.186 461.84C228.696 461.648 228.269 461.368 227.906 461C227.544 460.627 227.258 460.168 227.05 459.624C226.842 459.075 226.738 458.44 226.738 457.72C226.738 457.16 226.829 456.635 227.01 456.144C227.192 455.648 227.45 455.219 227.786 454.856C228.128 454.488 228.541 454.197 229.026 453.984C229.517 453.771 230.069 453.664 230.682 453.664ZM230.722 455.08C230.146 455.08 229.696 455.243 229.37 455.568C229.045 455.893 228.837 456.355 228.746 456.952H232.458C232.458 456.696 232.424 456.456 232.354 456.232C232.285 456.003 232.178 455.803 232.034 455.632C231.89 455.461 231.709 455.328 231.49 455.232C231.272 455.131 231.016 455.08 230.722 455.08ZM235.837 462V453.792H236.997C237.2 453.792 237.341 453.829 237.421 453.904C237.501 453.979 237.555 454.107 237.581 454.288L237.701 455.28C237.995 454.773 238.339 454.373 238.733 454.08C239.128 453.787 239.571 453.64 240.061 453.64C240.467 453.64 240.803 453.733 241.069 453.92L240.813 455.4C240.797 455.496 240.763 455.565 240.709 455.608C240.656 455.645 240.584 455.664 240.493 455.664C240.413 455.664 240.304 455.645 240.165 455.608C240.027 455.571 239.843 455.552 239.613 455.552C239.203 455.552 238.851 455.667 238.557 455.896C238.264 456.12 238.016 456.451 237.813 456.888V462H235.837Z" fill="white"/>
<rect x="36.5" y="368.5" width="327" height="31" rx="3.5" fill="white" stroke="#A5C3FF"/>
<path d="M348.811 390.876C348.412 391.429 347.588 391.429 347.189 390.876L340.484 381.585C340.006 380.924 340.479 380 341.295 380H354.705C355.521 380 355.994 380.924 355.516 381.585L348.811 390.876Z" fill="#A5C3FF"/>
<path d="M44.155 352.878V354.425H41.11V363H39.227V354.425H36.168V352.878H44.155ZM49.1692 363H48.3922C48.2289 363 48.1005 362.977 48.0072 362.93C47.9139 362.879 47.8439 362.778 47.7972 362.629L47.6432 362.118C47.4612 362.281 47.2815 362.426 47.1042 362.552C46.9315 362.673 46.7519 362.776 46.5652 362.86C46.3785 362.944 46.1802 363.007 45.9702 363.049C45.7602 363.091 45.5269 363.112 45.2702 363.112C44.9669 363.112 44.6869 363.072 44.4302 362.993C44.1735 362.909 43.9519 362.785 43.7652 362.622C43.5832 362.459 43.4409 362.256 43.3382 362.013C43.2355 361.77 43.1842 361.488 43.1842 361.166C43.1842 360.895 43.2542 360.629 43.3942 360.368C43.5389 360.102 43.7769 359.864 44.1082 359.654C44.4395 359.439 44.8805 359.262 45.4312 359.122C45.9819 358.982 46.6655 358.903 47.4822 358.884V358.464C47.4822 357.983 47.3795 357.629 47.1742 357.4C46.9735 357.167 46.6795 357.05 46.2922 357.05C46.0122 357.05 45.7789 357.083 45.5922 357.148C45.4055 357.213 45.2422 357.288 45.1022 357.372C44.9669 357.451 44.8409 357.524 44.7242 357.589C44.6075 357.654 44.4792 357.687 44.3392 357.687C44.2225 357.687 44.1222 357.657 44.0382 357.596C43.9542 357.535 43.8865 357.461 43.8352 357.372L43.5202 356.819C44.3462 356.063 45.3425 355.685 46.5092 355.685C46.9292 355.685 47.3025 355.755 47.6292 355.895C47.9605 356.03 48.2405 356.222 48.4692 356.469C48.6979 356.712 48.8705 357.003 48.9872 357.344C49.1085 357.685 49.1692 358.058 49.1692 358.464V363ZM45.8092 361.922C45.9865 361.922 46.1499 361.906 46.2992 361.873C46.4485 361.84 46.5885 361.791 46.7192 361.726C46.8545 361.661 46.9829 361.581 47.1042 361.488C47.2302 361.39 47.3562 361.276 47.4822 361.145V359.934C46.9782 359.957 46.5559 360.002 46.2152 360.067C45.8792 360.128 45.6085 360.207 45.4032 360.305C45.1979 360.403 45.0509 360.517 44.9622 360.648C44.8782 360.779 44.8362 360.921 44.8362 361.075C44.8362 361.378 44.9249 361.595 45.1022 361.726C45.2842 361.857 45.5199 361.922 45.8092 361.922ZM53.3543 355.692C53.6623 355.692 53.9516 355.725 54.2223 355.79C54.493 355.851 54.7403 355.942 54.9643 356.063H57.0293V356.707C57.0293 356.814 57.0013 356.898 56.9453 356.959C56.8893 357.02 56.7936 357.062 56.6583 357.085L56.0143 357.204C56.061 357.325 56.096 357.454 56.1193 357.589C56.1473 357.724 56.1613 357.867 56.1613 358.016C56.1613 358.371 56.089 358.693 55.9443 358.982C55.8043 359.267 55.6083 359.509 55.3563 359.71C55.109 359.911 54.8126 360.067 54.4673 360.179C54.1266 360.286 53.7556 360.34 53.3543 360.34C53.0836 360.34 52.82 360.314 52.5633 360.263C52.3393 360.398 52.2273 360.55 52.2273 360.718C52.2273 360.863 52.2926 360.97 52.4233 361.04C52.5586 361.105 52.7336 361.152 52.9483 361.18C53.1676 361.208 53.415 361.227 53.6903 361.236C53.9656 361.241 54.248 361.255 54.5373 361.278C54.8266 361.301 55.109 361.343 55.3843 361.404C55.6596 361.46 55.9046 361.551 56.1193 361.677C56.3386 361.803 56.5136 361.976 56.6443 362.195C56.7796 362.41 56.8473 362.687 56.8473 363.028C56.8473 363.345 56.768 363.653 56.6093 363.952C56.4553 364.251 56.229 364.517 55.9303 364.75C55.6363 364.983 55.2746 365.17 54.8453 365.31C54.416 365.455 53.926 365.527 53.3753 365.527C52.8293 365.527 52.3556 365.473 51.9543 365.366C51.553 365.263 51.2193 365.123 50.9533 364.946C50.692 364.773 50.496 364.573 50.3653 364.344C50.2346 364.115 50.1693 363.877 50.1693 363.63C50.1693 363.294 50.272 363.012 50.4773 362.783C50.6826 362.554 50.9673 362.372 51.3313 362.237C51.154 362.139 51.0116 362.008 50.9043 361.845C50.797 361.682 50.7433 361.469 50.7433 361.208C50.7433 361.101 50.762 360.991 50.7993 360.879C50.8366 360.762 50.8926 360.648 50.9673 360.536C51.0466 360.424 51.1446 360.319 51.2613 360.221C51.378 360.118 51.5156 360.027 51.6743 359.948C51.3103 359.752 51.0233 359.491 50.8133 359.164C50.608 358.837 50.5053 358.455 50.5053 358.016C50.5053 357.661 50.5753 357.342 50.7153 357.057C50.86 356.768 51.0583 356.523 51.3103 356.322C51.567 356.117 51.868 355.96 52.2133 355.853C52.5633 355.746 52.9436 355.692 53.3543 355.692ZM55.2513 363.322C55.2513 363.182 55.2093 363.068 55.1253 362.979C55.0413 362.89 54.927 362.823 54.7823 362.776C54.6376 362.725 54.4673 362.687 54.2713 362.664C54.08 362.641 53.8746 362.624 53.6553 362.615C53.4406 362.601 53.2166 362.589 52.9833 362.58C52.7546 362.566 52.533 362.545 52.3183 362.517C52.1223 362.624 51.9636 362.753 51.8423 362.902C51.7256 363.047 51.6673 363.215 51.6673 363.406C51.6673 363.532 51.6976 363.649 51.7583 363.756C51.8236 363.868 51.924 363.964 52.0593 364.043C52.1993 364.122 52.379 364.183 52.5983 364.225C52.8176 364.272 53.086 364.295 53.4033 364.295C53.7253 364.295 54.003 364.269 54.2363 364.218C54.4696 364.171 54.661 364.104 54.8103 364.015C54.9643 363.931 55.0763 363.828 55.1463 363.707C55.2163 363.59 55.2513 363.462 55.2513 363.322ZM53.3543 359.234C53.569 359.234 53.7556 359.206 53.9143 359.15C54.073 359.089 54.2036 359.008 54.3063 358.905C54.4136 358.802 54.493 358.679 54.5443 358.534C54.6003 358.389 54.6283 358.231 54.6283 358.058C54.6283 357.703 54.521 357.423 54.3063 357.218C54.0963 357.008 53.779 356.903 53.3543 356.903C52.9296 356.903 52.61 357.008 52.3953 357.218C52.1853 357.423 52.0803 357.703 52.0803 358.058C52.0803 358.226 52.106 358.382 52.1573 358.527C52.2133 358.672 52.2926 358.798 52.3953 358.905C52.5026 359.008 52.6356 359.089 52.7943 359.15C52.9576 359.206 53.1443 359.234 53.3543 359.234ZM62.3784 357.218C62.3317 357.293 62.2827 357.346 62.2314 357.379C62.1801 357.407 62.1147 357.421 62.0354 357.421C61.9514 357.421 61.8604 357.398 61.7624 357.351C61.6691 357.304 61.5594 357.253 61.4334 357.197C61.3074 357.136 61.1627 357.083 60.9994 357.036C60.8407 356.989 60.6517 356.966 60.4324 356.966C60.0917 356.966 59.8234 357.038 59.6274 357.183C59.4314 357.328 59.3334 357.517 59.3334 357.75C59.3334 357.904 59.3824 358.035 59.4804 358.142C59.5831 358.245 59.7161 358.336 59.8794 358.415C60.0474 358.494 60.2364 358.567 60.4464 358.632C60.6564 358.693 60.8711 358.76 61.0904 358.835C61.3097 358.91 61.5244 358.996 61.7344 359.094C61.9444 359.187 62.1311 359.309 62.2944 359.458C62.4624 359.603 62.5954 359.778 62.6934 359.983C62.7961 360.188 62.8474 360.436 62.8474 360.725C62.8474 361.07 62.7844 361.39 62.6584 361.684C62.5324 361.973 62.3481 362.225 62.1054 362.44C61.8627 362.65 61.5617 362.816 61.2024 362.937C60.8477 363.054 60.4394 363.112 59.9774 363.112C59.7301 363.112 59.4874 363.089 59.2494 363.042C59.0161 363 58.7897 362.939 58.5704 362.86C58.3557 362.781 58.1551 362.687 57.9684 362.58C57.7864 362.473 57.6254 362.356 57.4854 362.23L57.8844 361.572C57.9357 361.493 57.9964 361.432 58.0664 361.39C58.1364 361.348 58.2251 361.327 58.3324 361.327C58.4397 361.327 58.5401 361.357 58.6334 361.418C58.7314 361.479 58.8434 361.544 58.9694 361.614C59.0954 361.684 59.2424 361.749 59.4104 361.81C59.5831 361.871 59.8001 361.901 60.0614 361.901C60.2667 361.901 60.4417 361.878 60.5864 361.831C60.7357 361.78 60.8571 361.714 60.9504 361.635C61.0484 361.556 61.1184 361.465 61.1604 361.362C61.2071 361.255 61.2304 361.145 61.2304 361.033C61.2304 360.865 61.1791 360.727 61.0764 360.62C60.9784 360.513 60.8454 360.419 60.6774 360.34C60.5141 360.261 60.3251 360.191 60.1104 360.13C59.9004 360.065 59.6834 359.995 59.4594 359.92C59.2401 359.845 59.0231 359.759 58.8084 359.661C58.5984 359.558 58.4094 359.43 58.2414 359.276C58.0781 359.122 57.9451 358.933 57.8424 358.709C57.7444 358.485 57.6954 358.214 57.6954 357.897C57.6954 357.603 57.7537 357.323 57.8704 357.057C57.9871 356.791 58.1574 356.56 58.3814 356.364C58.6101 356.163 58.8924 356.005 59.2284 355.888C59.5691 355.767 59.9611 355.706 60.4044 355.706C60.8991 355.706 61.3494 355.788 61.7554 355.951C62.1614 356.114 62.4997 356.329 62.7704 356.595L62.3784 357.218Z" fill="#222222"/>
<rect x="36.5" y="300.5" width="327" height="31" rx="3.5" fill="white" stroke="#A5C3FF"/>
<path d="M348.811 322.876C348.412 323.429 347.588 323.429 347.189 322.876L340.484 313.585C340.006 312.924 340.479 312 341.295 312H354.705C355.521 312 355.994 312.924 355.516 313.585L348.811 322.876Z" fill="#A5C3FF"/>
<path d="M38.009 284.878C38.093 284.878 38.163 284.883 38.219 284.892C38.275 284.897 38.324 284.911 38.366 284.934C38.4127 284.953 38.457 284.983 38.499 285.025C38.541 285.062 38.5877 285.114 38.639 285.179L43.952 291.948C43.9333 291.785 43.9193 291.626 43.91 291.472C43.9053 291.313 43.903 291.166 43.903 291.031V284.878H45.562V295H44.589C44.4397 295 44.316 294.977 44.218 294.93C44.12 294.883 44.0243 294.799 43.931 294.678L38.639 287.937C38.653 288.086 38.6623 288.236 38.667 288.385C38.6763 288.53 38.681 288.663 38.681 288.784V295H37.022V284.878H38.009ZM49.347 287.818V295H47.618V287.818H49.347ZM49.606 285.725C49.606 285.874 49.5757 286.014 49.515 286.145C49.4544 286.276 49.3727 286.39 49.27 286.488C49.172 286.586 49.0554 286.665 48.92 286.726C48.7847 286.782 48.64 286.81 48.486 286.81C48.3367 286.81 48.1944 286.782 48.059 286.726C47.9284 286.665 47.814 286.586 47.716 286.488C47.618 286.39 47.5387 286.276 47.478 286.145C47.422 286.014 47.394 285.874 47.394 285.725C47.394 285.571 47.422 285.426 47.478 285.291C47.5387 285.156 47.618 285.039 47.716 284.941C47.814 284.843 47.9284 284.766 48.059 284.71C48.1944 284.649 48.3367 284.619 48.486 284.619C48.64 284.619 48.7847 284.649 48.92 284.71C49.0554 284.766 49.172 284.843 49.27 284.941C49.3727 285.039 49.4544 285.156 49.515 285.291C49.5757 285.426 49.606 285.571 49.606 285.725ZM54.9048 295H53.3368L50.4808 287.818H51.9158C52.0418 287.818 52.1468 287.848 52.2308 287.909C52.3195 287.97 52.3801 288.047 52.4128 288.14L53.7988 291.976C53.8781 292.2 53.9435 292.419 53.9948 292.634C54.0508 292.849 54.0998 293.063 54.1418 293.278C54.1838 293.063 54.2305 292.849 54.2818 292.634C54.3378 292.419 54.4078 292.2 54.4918 291.976L55.9128 288.14C55.9455 288.047 56.0038 287.97 56.0878 287.909C56.1718 287.848 56.2721 287.818 56.3888 287.818H57.7538L54.9048 295ZM61.5072 287.706C61.9599 287.706 62.3752 287.778 62.7532 287.923C63.1359 288.068 63.4649 288.28 63.7402 288.56C64.0156 288.835 64.2302 289.176 64.3842 289.582C64.5382 289.983 64.6152 290.443 64.6152 290.961C64.6152 291.092 64.6082 291.201 64.5942 291.29C64.5849 291.374 64.5639 291.442 64.5312 291.493C64.5032 291.54 64.4636 291.575 64.4122 291.598C64.3609 291.617 64.2956 291.626 64.2162 291.626H59.7782C59.8296 292.363 60.0279 292.905 60.3732 293.25C60.7186 293.595 61.1759 293.768 61.7452 293.768C62.0252 293.768 62.2656 293.735 62.4662 293.67C62.6716 293.605 62.8489 293.532 62.9982 293.453C63.1522 293.374 63.2852 293.301 63.3972 293.236C63.5139 293.171 63.6259 293.138 63.7332 293.138C63.8032 293.138 63.8639 293.152 63.9152 293.18C63.9666 293.208 64.0109 293.248 64.0482 293.299L64.5522 293.929C64.3609 294.153 64.1462 294.342 63.9082 294.496C63.6702 294.645 63.4206 294.767 63.1592 294.86C62.9026 294.949 62.6389 295.012 62.3682 295.049C62.1022 295.086 61.8432 295.105 61.5912 295.105C61.0919 295.105 60.6276 295.023 60.1982 294.86C59.7689 294.692 59.3956 294.447 59.0782 294.125C58.7609 293.798 58.5112 293.397 58.3292 292.921C58.1472 292.44 58.0562 291.885 58.0562 291.255C58.0562 290.765 58.1356 290.305 58.2942 289.876C58.4529 289.442 58.6792 289.066 58.9732 288.749C59.2719 288.427 59.6336 288.173 60.0582 287.986C60.4876 287.799 60.9706 287.706 61.5072 287.706ZM61.5422 288.945C61.0382 288.945 60.6439 289.087 60.3592 289.372C60.0746 289.657 59.8926 290.06 59.8132 290.583H63.0612C63.0612 290.359 63.0309 290.149 62.9702 289.953C62.9096 289.752 62.8162 289.577 62.6902 289.428C62.5642 289.279 62.4056 289.162 62.2142 289.078C62.0229 288.989 61.7989 288.945 61.5422 288.945ZM71.6458 295H70.8688C70.7054 295 70.5771 294.977 70.4838 294.93C70.3904 294.879 70.3204 294.778 70.2738 294.629L70.1198 294.118C69.9378 294.281 69.7581 294.426 69.5808 294.552C69.4081 294.673 69.2284 294.776 69.0418 294.86C68.8551 294.944 68.6568 295.007 68.4468 295.049C68.2368 295.091 68.0034 295.112 67.7468 295.112C67.4434 295.112 67.1634 295.072 66.9068 294.993C66.6501 294.909 66.4284 294.785 66.2418 294.622C66.0598 294.459 65.9174 294.256 65.8148 294.013C65.7121 293.77 65.6608 293.488 65.6608 293.166C65.6608 292.895 65.7308 292.629 65.8708 292.368C66.0154 292.102 66.2534 291.864 66.5848 291.654C66.9161 291.439 67.3571 291.262 67.9078 291.122C68.4584 290.982 69.1421 290.903 69.9588 290.884V290.464C69.9588 289.983 69.8561 289.629 69.6508 289.4C69.4501 289.167 69.1561 289.05 68.7688 289.05C68.4888 289.05 68.2554 289.083 68.0688 289.148C67.8821 289.213 67.7188 289.288 67.5788 289.372C67.4434 289.451 67.3174 289.524 67.2008 289.589C67.0841 289.654 66.9558 289.687 66.8158 289.687C66.6991 289.687 66.5988 289.657 66.5148 289.596C66.4308 289.535 66.3631 289.461 66.3118 289.372L65.9968 288.819C66.8228 288.063 67.8191 287.685 68.9858 287.685C69.4058 287.685 69.7791 287.755 70.1058 287.895C70.4371 288.03 70.7171 288.222 70.9458 288.469C71.1744 288.712 71.3471 289.003 71.4638 289.344C71.5851 289.685 71.6458 290.058 71.6458 290.464V295ZM68.2858 293.922C68.4631 293.922 68.6264 293.906 68.7758 293.873C68.9251 293.84 69.0651 293.791 69.1958 293.726C69.3311 293.661 69.4594 293.581 69.5808 293.488C69.7068 293.39 69.8328 293.276 69.9588 293.145V291.934C69.4548 291.957 69.0324 292.002 68.6917 292.067C68.3558 292.128 68.0851 292.207 67.8798 292.305C67.6744 292.403 67.5274 292.517 67.4388 292.648C67.3548 292.779 67.3128 292.921 67.3128 293.075C67.3128 293.378 67.4014 293.595 67.5788 293.726C67.7608 293.857 67.9964 293.922 68.2858 293.922ZM74.9279 287.818V292.382C74.9279 292.821 75.0282 293.161 75.2289 293.404C75.4342 293.642 75.7399 293.761 76.1459 293.761C76.4445 293.761 76.7245 293.696 76.9859 293.565C77.2472 293.43 77.4945 293.245 77.7279 293.012V287.818H79.4569V295H78.3999C78.1759 295 78.0289 294.895 77.9589 294.685L77.8399 294.111C77.6905 294.26 77.5365 294.398 77.3779 294.524C77.2192 294.645 77.0489 294.75 76.8669 294.839C76.6895 294.923 76.4959 294.988 76.2859 295.035C76.0805 295.086 75.8589 295.112 75.6209 295.112C75.2289 295.112 74.8812 295.047 74.5779 294.916C74.2792 294.781 74.0272 294.592 73.8219 294.349C73.6165 294.106 73.4602 293.819 73.3529 293.488C73.2502 293.152 73.1989 292.783 73.1989 292.382V287.818H74.9279ZM89.0639 295C88.8399 295 88.6929 294.895 88.6229 294.685L88.4829 293.992C88.3336 294.16 88.1773 294.312 88.0139 294.447C87.8506 294.582 87.6733 294.699 87.4819 294.797C87.2953 294.895 87.0923 294.97 86.8729 295.021C86.6583 295.077 86.4249 295.105 86.1729 295.105C85.7809 295.105 85.4216 295.023 85.0949 294.86C84.7683 294.697 84.4859 294.461 84.2479 294.153C84.0146 293.84 83.8326 293.455 83.7019 292.998C83.5759 292.541 83.5129 292.018 83.5129 291.43C83.5129 290.898 83.5853 290.403 83.7299 289.946C83.8746 289.489 84.0823 289.092 84.3529 288.756C84.6236 288.42 84.9479 288.159 85.3259 287.972C85.7039 287.781 86.1286 287.685 86.5999 287.685C87.0013 287.685 87.3443 287.75 87.6289 287.881C87.9136 288.007 88.1679 288.177 88.3919 288.392V284.598H90.1209V295H89.0639ZM86.7609 293.733C87.1203 293.733 87.4259 293.658 87.6779 293.509C87.9299 293.36 88.1679 293.147 88.3919 292.872V289.652C88.1959 289.414 87.9813 289.246 87.7479 289.148C87.5193 289.05 87.2719 289.001 87.0059 289.001C86.7446 289.001 86.5066 289.05 86.2919 289.148C86.0819 289.246 85.9023 289.395 85.7529 289.596C85.6083 289.792 85.4963 290.044 85.4169 290.352C85.3376 290.655 85.2979 291.015 85.2979 291.43C85.2979 291.85 85.3306 292.207 85.3959 292.501C85.4659 292.79 85.5639 293.028 85.6899 293.215C85.8159 293.397 85.9699 293.53 86.1519 293.614C86.3339 293.693 86.5369 293.733 86.7609 293.733ZM94.9623 287.706C95.415 287.706 95.8303 287.778 96.2083 287.923C96.591 288.068 96.92 288.28 97.1953 288.56C97.4706 288.835 97.6853 289.176 97.8393 289.582C97.9933 289.983 98.0703 290.443 98.0703 290.961C98.0703 291.092 98.0633 291.201 98.0493 291.29C98.04 291.374 98.019 291.442 97.9863 291.493C97.9583 291.54 97.9186 291.575 97.8673 291.598C97.816 291.617 97.7506 291.626 97.6713 291.626H93.2333C93.2846 292.363 93.483 292.905 93.8283 293.25C94.1736 293.595 94.631 293.768 95.2003 293.768C95.4803 293.768 95.7206 293.735 95.9213 293.67C96.1266 293.605 96.304 293.532 96.4533 293.453C96.6073 293.374 96.7403 293.301 96.8523 293.236C96.969 293.171 97.081 293.138 97.1883 293.138C97.2583 293.138 97.319 293.152 97.3703 293.18C97.4216 293.208 97.466 293.248 97.5033 293.299L98.0073 293.929C97.816 294.153 97.6013 294.342 97.3633 294.496C97.1253 294.645 96.8756 294.767 96.6143 294.86C96.3576 294.949 96.094 295.012 95.8233 295.049C95.5573 295.086 95.2983 295.105 95.0463 295.105C94.547 295.105 94.0826 295.023 93.6533 294.86C93.224 294.692 92.8506 294.447 92.5333 294.125C92.216 293.798 91.9663 293.397 91.7843 292.921C91.6023 292.44 91.5113 291.885 91.5113 291.255C91.5113 290.765 91.5906 290.305 91.7493 289.876C91.908 289.442 92.1343 289.066 92.4283 288.749C92.727 288.427 93.0886 288.173 93.5133 287.986C93.9426 287.799 94.4256 287.706 94.9623 287.706ZM94.9973 288.945C94.4933 288.945 94.099 289.087 93.8143 289.372C93.5296 289.657 93.3476 290.06 93.2683 290.583H96.5163C96.5163 290.359 96.486 290.149 96.4253 289.953C96.3646 289.752 96.2713 289.577 96.1453 289.428C96.0193 289.279 95.8606 289.162 95.6693 289.078C95.478 288.989 95.254 288.945 94.9973 288.945ZM107.227 289.337C107.176 289.402 107.124 289.454 107.073 289.491C107.026 289.528 106.956 289.547 106.863 289.547C106.774 289.547 106.688 289.521 106.604 289.47C106.52 289.414 106.42 289.353 106.303 289.288C106.186 289.218 106.046 289.157 105.883 289.106C105.724 289.05 105.526 289.022 105.288 289.022C104.985 289.022 104.719 289.078 104.49 289.19C104.261 289.297 104.07 289.454 103.916 289.659C103.767 289.864 103.655 290.114 103.58 290.408C103.505 290.697 103.468 291.026 103.468 291.395C103.468 291.778 103.508 292.118 103.587 292.417C103.671 292.716 103.79 292.968 103.944 293.173C104.098 293.374 104.285 293.528 104.504 293.635C104.723 293.738 104.971 293.789 105.246 293.789C105.521 293.789 105.743 293.756 105.911 293.691C106.084 293.621 106.228 293.546 106.345 293.467C106.462 293.383 106.562 293.308 106.646 293.243C106.735 293.173 106.833 293.138 106.94 293.138C107.08 293.138 107.185 293.192 107.255 293.299L107.752 293.929C107.561 294.153 107.353 294.342 107.129 294.496C106.905 294.645 106.672 294.767 106.429 294.86C106.191 294.949 105.944 295.012 105.687 295.049C105.43 295.086 105.176 295.105 104.924 295.105C104.481 295.105 104.063 295.023 103.671 294.86C103.279 294.692 102.936 294.449 102.642 294.132C102.353 293.815 102.122 293.427 101.949 292.97C101.781 292.508 101.697 291.983 101.697 291.395C101.697 290.868 101.772 290.38 101.921 289.932C102.075 289.479 102.299 289.09 102.593 288.763C102.887 288.432 103.251 288.173 103.685 287.986C104.119 287.799 104.618 287.706 105.183 287.706C105.72 287.706 106.189 287.792 106.59 287.965C106.996 288.138 107.36 288.385 107.682 288.707L107.227 289.337ZM111.918 287.706C112.454 287.706 112.94 287.792 113.374 287.965C113.812 288.138 114.186 288.383 114.494 288.7C114.802 289.017 115.04 289.405 115.208 289.862C115.376 290.319 115.46 290.83 115.46 291.395C115.46 291.964 115.376 292.478 115.208 292.935C115.04 293.392 114.802 293.782 114.494 294.104C114.186 294.426 113.812 294.673 113.374 294.846C112.94 295.019 112.454 295.105 111.918 295.105C111.381 295.105 110.893 295.019 110.455 294.846C110.016 294.673 109.64 294.426 109.328 294.104C109.02 293.782 108.779 293.392 108.607 292.935C108.439 292.478 108.355 291.964 108.355 291.395C108.355 290.83 108.439 290.319 108.607 289.862C108.779 289.405 109.02 289.017 109.328 288.7C109.64 288.383 110.016 288.138 110.455 287.965C110.893 287.792 111.381 287.706 111.918 287.706ZM111.918 293.775C112.515 293.775 112.956 293.574 113.241 293.173C113.53 292.772 113.675 292.184 113.675 291.409C113.675 290.634 113.53 290.044 113.241 289.638C112.956 289.232 112.515 289.029 111.918 289.029C111.311 289.029 110.863 289.234 110.574 289.645C110.284 290.051 110.14 290.639 110.14 291.409C110.14 292.179 110.284 292.767 110.574 293.173C110.863 293.574 111.311 293.775 111.918 293.775ZM116.809 295V287.818H117.866C118.09 287.818 118.237 287.923 118.307 288.133L118.419 288.665C118.545 288.525 118.675 288.397 118.811 288.28C118.951 288.163 119.098 288.063 119.252 287.979C119.41 287.895 119.578 287.83 119.756 287.783C119.938 287.732 120.136 287.706 120.351 287.706C120.803 287.706 121.174 287.83 121.464 288.077C121.758 288.32 121.977 288.644 122.122 289.05C122.234 288.812 122.374 288.609 122.542 288.441C122.71 288.268 122.894 288.128 123.095 288.021C123.295 287.914 123.508 287.834 123.732 287.783C123.96 287.732 124.189 287.706 124.418 287.706C124.814 287.706 125.167 287.767 125.475 287.888C125.783 288.009 126.042 288.187 126.252 288.42C126.462 288.653 126.62 288.938 126.728 289.274C126.84 289.61 126.896 289.995 126.896 290.429V295H125.167V290.429C125.167 289.972 125.066 289.629 124.866 289.4C124.665 289.167 124.371 289.05 123.984 289.05C123.806 289.05 123.641 289.08 123.487 289.141C123.337 289.202 123.204 289.29 123.088 289.407C122.976 289.519 122.887 289.661 122.822 289.834C122.756 290.007 122.724 290.205 122.724 290.429V295H120.988V290.429C120.988 289.948 120.89 289.598 120.694 289.379C120.502 289.16 120.218 289.05 119.84 289.05C119.592 289.05 119.359 289.113 119.14 289.239C118.925 289.36 118.724 289.528 118.538 289.743V295H116.809ZM128.594 297.345V287.818H129.651C129.763 287.818 129.859 287.844 129.938 287.895C130.017 287.946 130.069 288.026 130.092 288.133L130.232 288.798C130.521 288.467 130.853 288.198 131.226 287.993C131.604 287.788 132.045 287.685 132.549 287.685C132.941 287.685 133.298 287.767 133.62 287.93C133.947 288.093 134.227 288.331 134.46 288.644C134.698 288.952 134.88 289.335 135.006 289.792C135.137 290.245 135.202 290.765 135.202 291.353C135.202 291.89 135.13 292.387 134.985 292.844C134.84 293.301 134.633 293.698 134.362 294.034C134.096 294.37 133.772 294.634 133.389 294.825C133.011 295.012 132.586 295.105 132.115 295.105C131.709 295.105 131.364 295.044 131.079 294.923C130.799 294.797 130.547 294.624 130.323 294.405V297.345H128.594ZM131.954 289.05C131.595 289.05 131.287 289.127 131.03 289.281C130.778 289.43 130.542 289.643 130.323 289.918V293.138C130.519 293.381 130.731 293.551 130.96 293.649C131.193 293.742 131.443 293.789 131.709 293.789C131.97 293.789 132.206 293.74 132.416 293.642C132.631 293.544 132.81 293.395 132.955 293.194C133.104 292.993 133.219 292.741 133.298 292.438C133.377 292.13 133.417 291.768 133.417 291.353C133.417 290.933 133.382 290.578 133.312 290.289C133.247 289.995 133.151 289.757 133.025 289.575C132.899 289.393 132.745 289.26 132.563 289.176C132.386 289.092 132.183 289.05 131.954 289.05ZM139.478 287.706C139.931 287.706 140.346 287.778 140.724 287.923C141.107 288.068 141.436 288.28 141.711 288.56C141.986 288.835 142.201 289.176 142.355 289.582C142.509 289.983 142.586 290.443 142.586 290.961C142.586 291.092 142.579 291.201 142.565 291.29C142.556 291.374 142.535 291.442 142.502 291.493C142.474 291.54 142.434 291.575 142.383 291.598C142.332 291.617 142.266 291.626 142.187 291.626H137.749C137.8 292.363 137.999 292.905 138.344 293.25C138.689 293.595 139.147 293.768 139.716 293.768C139.996 293.768 140.236 293.735 140.437 293.67C140.642 293.605 140.82 293.532 140.969 293.453C141.123 293.374 141.256 293.301 141.368 293.236C141.485 293.171 141.597 293.138 141.704 293.138C141.774 293.138 141.835 293.152 141.886 293.18C141.937 293.208 141.982 293.248 142.019 293.299L142.523 293.929C142.332 294.153 142.117 294.342 141.879 294.496C141.641 294.645 141.391 294.767 141.13 294.86C140.873 294.949 140.61 295.012 140.339 295.049C140.073 295.086 139.814 295.105 139.562 295.105C139.063 295.105 138.598 295.023 138.169 294.86C137.74 294.692 137.366 294.447 137.049 294.125C136.732 293.798 136.482 293.397 136.3 292.921C136.118 292.44 136.027 291.885 136.027 291.255C136.027 290.765 136.106 290.305 136.265 289.876C136.424 289.442 136.65 289.066 136.944 288.749C137.243 288.427 137.604 288.173 138.029 287.986C138.458 287.799 138.941 287.706 139.478 287.706ZM139.513 288.945C139.009 288.945 138.615 289.087 138.33 289.372C138.045 289.657 137.863 290.06 137.784 290.583H141.032C141.032 290.359 141.002 290.149 140.941 289.953C140.88 289.752 140.787 289.577 140.661 289.428C140.535 289.279 140.376 289.162 140.185 289.078C139.994 288.989 139.77 288.945 139.513 288.945ZM141.942 284.766L140.213 286.593C140.124 286.686 140.038 286.752 139.954 286.789C139.875 286.822 139.77 286.838 139.639 286.838H138.603L139.597 285.137C139.667 285.016 139.749 284.925 139.842 284.864C139.935 284.799 140.075 284.766 140.262 284.766H141.942ZM146.347 295.112C145.727 295.112 145.248 294.937 144.912 294.587C144.576 294.232 144.408 293.745 144.408 293.124V289.113H143.68C143.587 289.113 143.505 289.083 143.435 289.022C143.37 288.961 143.337 288.87 143.337 288.749V288.063L144.492 287.874L144.856 285.914C144.875 285.821 144.917 285.748 144.982 285.697C145.052 285.646 145.139 285.62 145.241 285.62H146.137V287.881H148.027V289.113H146.137V293.005C146.137 293.229 146.193 293.404 146.305 293.53C146.417 293.656 146.567 293.719 146.753 293.719C146.861 293.719 146.949 293.707 147.019 293.684C147.094 293.656 147.157 293.628 147.208 293.6C147.264 293.572 147.313 293.546 147.355 293.523C147.397 293.495 147.439 293.481 147.481 293.481C147.533 293.481 147.575 293.495 147.607 293.523C147.64 293.546 147.675 293.584 147.712 293.635L148.23 294.475C147.978 294.685 147.689 294.844 147.362 294.951C147.036 295.058 146.697 295.112 146.347 295.112ZM152.371 287.706C152.823 287.706 153.239 287.778 153.617 287.923C153.999 288.068 154.328 288.28 154.604 288.56C154.879 288.835 155.094 289.176 155.248 289.582C155.402 289.983 155.479 290.443 155.479 290.961C155.479 291.092 155.472 291.201 155.458 291.29C155.448 291.374 155.427 291.442 155.395 291.493C155.367 291.54 155.327 291.575 155.276 291.598C155.224 291.617 155.159 291.626 155.08 291.626H150.642C150.693 292.363 150.891 292.905 151.237 293.25C151.582 293.595 152.039 293.768 152.609 293.768C152.889 293.768 153.129 293.735 153.33 293.67C153.535 293.605 153.712 293.532 153.862 293.453C154.016 293.374 154.149 293.301 154.261 293.236C154.377 293.171 154.489 293.138 154.597 293.138C154.667 293.138 154.727 293.152 154.779 293.18C154.83 293.208 154.874 293.248 154.912 293.299L155.416 293.929C155.224 294.153 155.01 294.342 154.772 294.496C154.534 294.645 154.284 294.767 154.023 294.86C153.766 294.949 153.502 295.012 153.232 295.049C152.966 295.086 152.707 295.105 152.455 295.105C151.955 295.105 151.491 295.023 151.062 294.86C150.632 294.692 150.259 294.447 149.942 294.125C149.624 293.798 149.375 293.397 149.193 292.921C149.011 292.44 148.92 291.885 148.92 291.255C148.92 290.765 148.999 290.305 149.158 289.876C149.316 289.442 149.543 289.066 149.837 288.749C150.135 288.427 150.497 288.173 150.922 287.986C151.351 287.799 151.834 287.706 152.371 287.706ZM152.406 288.945C151.902 288.945 151.507 289.087 151.223 289.372C150.938 289.657 150.756 290.06 150.677 290.583H153.925C153.925 290.359 153.894 290.149 153.834 289.953C153.773 289.752 153.68 289.577 153.554 289.428C153.428 289.279 153.269 289.162 153.078 289.078C152.886 288.989 152.662 288.945 152.406 288.945ZM156.881 295V287.818H157.938C158.162 287.818 158.309 287.923 158.379 288.133L158.498 288.7C158.643 288.551 158.794 288.415 158.953 288.294C159.116 288.173 159.287 288.068 159.464 287.979C159.646 287.89 159.84 287.823 160.045 287.776C160.25 287.729 160.474 287.706 160.717 287.706C161.109 287.706 161.457 287.774 161.76 287.909C162.063 288.04 162.315 288.226 162.516 288.469C162.721 288.707 162.875 288.994 162.978 289.33C163.085 289.661 163.139 290.028 163.139 290.429V295H161.41V290.429C161.41 289.99 161.307 289.652 161.102 289.414C160.901 289.171 160.598 289.05 160.192 289.05C159.893 289.05 159.613 289.118 159.352 289.253C159.091 289.388 158.843 289.573 158.61 289.806V295H156.881ZM169.885 289.337C169.834 289.402 169.782 289.454 169.731 289.491C169.684 289.528 169.614 289.547 169.521 289.547C169.432 289.547 169.346 289.521 169.262 289.47C169.178 289.414 169.078 289.353 168.961 289.288C168.844 289.218 168.704 289.157 168.541 289.106C168.382 289.05 168.184 289.022 167.946 289.022C167.643 289.022 167.377 289.078 167.148 289.19C166.919 289.297 166.728 289.454 166.574 289.659C166.425 289.864 166.313 290.114 166.238 290.408C166.163 290.697 166.126 291.026 166.126 291.395C166.126 291.778 166.166 292.118 166.245 292.417C166.329 292.716 166.448 292.968 166.602 293.173C166.756 293.374 166.943 293.528 167.162 293.635C167.381 293.738 167.629 293.789 167.904 293.789C168.179 293.789 168.401 293.756 168.569 293.691C168.742 293.621 168.886 293.546 169.003 293.467C169.12 293.383 169.22 293.308 169.304 293.243C169.393 293.173 169.491 293.138 169.598 293.138C169.738 293.138 169.843 293.192 169.913 293.299L170.41 293.929C170.219 294.153 170.011 294.342 169.787 294.496C169.563 294.645 169.33 294.767 169.087 294.86C168.849 294.949 168.602 295.012 168.345 295.049C168.088 295.086 167.834 295.105 167.582 295.105C167.139 295.105 166.721 295.023 166.329 294.86C165.937 294.692 165.594 294.449 165.3 294.132C165.011 293.815 164.78 293.427 164.607 292.97C164.439 292.508 164.355 291.983 164.355 291.395C164.355 290.868 164.43 290.38 164.579 289.932C164.733 289.479 164.957 289.09 165.251 288.763C165.545 288.432 165.909 288.173 166.343 287.986C166.777 287.799 167.276 287.706 167.841 287.706C168.378 287.706 168.847 287.792 169.248 287.965C169.654 288.138 170.018 288.385 170.34 288.707L169.885 289.337ZM174.478 287.706C174.931 287.706 175.346 287.778 175.724 287.923C176.107 288.068 176.436 288.28 176.711 288.56C176.986 288.835 177.201 289.176 177.355 289.582C177.509 289.983 177.586 290.443 177.586 290.961C177.586 291.092 177.579 291.201 177.565 291.29C177.556 291.374 177.535 291.442 177.502 291.493C177.474 291.54 177.434 291.575 177.383 291.598C177.332 291.617 177.266 291.626 177.187 291.626H172.749C172.8 292.363 172.999 292.905 173.344 293.25C173.689 293.595 174.147 293.768 174.716 293.768C174.996 293.768 175.236 293.735 175.437 293.67C175.642 293.605 175.82 293.532 175.969 293.453C176.123 293.374 176.256 293.301 176.368 293.236C176.485 293.171 176.597 293.138 176.704 293.138C176.774 293.138 176.835 293.152 176.886 293.18C176.937 293.208 176.982 293.248 177.019 293.299L177.523 293.929C177.332 294.153 177.117 294.342 176.879 294.496C176.641 294.645 176.391 294.767 176.13 294.86C175.873 294.949 175.61 295.012 175.339 295.049C175.073 295.086 174.814 295.105 174.562 295.105C174.063 295.105 173.598 295.023 173.169 294.86C172.74 294.692 172.366 294.447 172.049 294.125C171.732 293.798 171.482 293.397 171.3 292.921C171.118 292.44 171.027 291.885 171.027 291.255C171.027 290.765 171.106 290.305 171.265 289.876C171.424 289.442 171.65 289.066 171.944 288.749C172.243 288.427 172.604 288.173 173.029 287.986C173.458 287.799 173.941 287.706 174.478 287.706ZM174.513 288.945C174.009 288.945 173.615 289.087 173.33 289.372C173.045 289.657 172.863 290.06 172.784 290.583H176.032C176.032 290.359 176.002 290.149 175.941 289.953C175.88 289.752 175.787 289.577 175.661 289.428C175.535 289.279 175.376 289.162 175.185 289.078C174.994 288.989 174.77 288.945 174.513 288.945Z" fill="#222222"/>
<rect x="36.5" y="232.5" width="327" height="31" rx="3.5" fill="white" stroke="#A5C3FF"/>
<path d="M348.811 254.876C348.412 255.429 347.588 255.429 347.189 254.876L340.484 245.585C340.006 244.924 340.479 244 341.295 244H354.705C355.521 244 355.994 244.924 355.516 245.585L348.811 254.876Z" fill="#A5C3FF"/>
<path d="M38.905 225.446H42.958V227H37.022V216.878H38.905V225.446ZM49.7844 227H49.0074C48.8441 227 48.7158 226.977 48.6224 226.93C48.5291 226.879 48.4591 226.778 48.4124 226.629L48.2584 226.118C48.0764 226.281 47.8968 226.426 47.7194 226.552C47.5468 226.673 47.3671 226.776 47.1804 226.86C46.9938 226.944 46.7954 227.007 46.5854 227.049C46.3754 227.091 46.1421 227.112 45.8854 227.112C45.5821 227.112 45.3021 227.072 45.0454 226.993C44.7888 226.909 44.5671 226.785 44.3804 226.622C44.1984 226.459 44.0561 226.256 43.9534 226.013C43.8508 225.77 43.7994 225.488 43.7994 225.166C43.7994 224.895 43.8694 224.629 44.0094 224.368C44.1541 224.102 44.3921 223.864 44.7234 223.654C45.0548 223.439 45.4958 223.262 46.0464 223.122C46.5971 222.982 47.2808 222.903 48.0974 222.884V222.464C48.0974 221.983 47.9948 221.629 47.7894 221.4C47.5888 221.167 47.2948 221.05 46.9074 221.05C46.6274 221.05 46.3941 221.083 46.2074 221.148C46.0208 221.213 45.8574 221.288 45.7174 221.372C45.5821 221.451 45.4561 221.524 45.3394 221.589C45.2228 221.654 45.0944 221.687 44.9544 221.687C44.8378 221.687 44.7374 221.657 44.6534 221.596C44.5694 221.535 44.5018 221.461 44.4504 221.372L44.1354 220.819C44.9614 220.063 45.9578 219.685 47.1244 219.685C47.5444 219.685 47.9178 219.755 48.2444 219.895C48.5758 220.03 48.8558 220.222 49.0844 220.469C49.3131 220.712 49.4858 221.003 49.6024 221.344C49.7238 221.685 49.7844 222.058 49.7844 222.464V227ZM46.4244 225.922C46.6018 225.922 46.7651 225.906 46.9144 225.873C47.0638 225.84 47.2038 225.791 47.3344 225.726C47.4698 225.661 47.5981 225.581 47.7194 225.488C47.8454 225.39 47.9714 225.276 48.0974 225.145V223.934C47.5934 223.957 47.1711 224.002 46.8304 224.067C46.4944 224.128 46.2238 224.207 46.0184 224.305C45.8131 224.403 45.6661 224.517 45.5774 224.648C45.4934 224.779 45.4514 224.921 45.4514 225.075C45.4514 225.378 45.5401 225.595 45.7174 225.726C45.8994 225.857 46.1351 225.922 46.4244 225.922ZM51.4845 227V219.818H52.5415C52.7655 219.818 52.9125 219.923 52.9825 220.133L53.1015 220.7C53.2462 220.551 53.3979 220.415 53.5565 220.294C53.7199 220.173 53.8902 220.068 54.0675 219.979C54.2495 219.89 54.4432 219.823 54.6485 219.776C54.8539 219.729 55.0779 219.706 55.3205 219.706C55.7125 219.706 56.0602 219.774 56.3635 219.909C56.6669 220.04 56.9189 220.226 57.1195 220.469C57.3249 220.707 57.4789 220.994 57.5815 221.33C57.6889 221.661 57.7425 222.028 57.7425 222.429V227H56.0135V222.429C56.0135 221.99 55.9109 221.652 55.7055 221.414C55.5049 221.171 55.2015 221.05 54.7955 221.05C54.4969 221.05 54.2169 221.118 53.9555 221.253C53.6942 221.388 53.4469 221.573 53.2135 221.806V227H51.4845ZM61.9266 219.692C62.2346 219.692 62.5239 219.725 62.7946 219.79C63.0652 219.851 63.3126 219.942 63.5366 220.063H65.6016V220.707C65.6016 220.814 65.5736 220.898 65.5176 220.959C65.4616 221.02 65.3659 221.062 65.2306 221.085L64.5866 221.204C64.6332 221.325 64.6682 221.454 64.6916 221.589C64.7196 221.724 64.7336 221.867 64.7336 222.016C64.7336 222.371 64.6612 222.693 64.5166 222.982C64.3766 223.267 64.1806 223.509 63.9286 223.71C63.6812 223.911 63.3849 224.067 63.0396 224.179C62.6989 224.286 62.3279 224.34 61.9266 224.34C61.6559 224.34 61.3922 224.314 61.1356 224.263C60.9116 224.398 60.7996 224.55 60.7996 224.718C60.7996 224.863 60.8649 224.97 60.9956 225.04C61.1309 225.105 61.3059 225.152 61.5206 225.18C61.7399 225.208 61.9872 225.227 62.2626 225.236C62.5379 225.241 62.8202 225.255 63.1096 225.278C63.3989 225.301 63.6812 225.343 63.9566 225.404C64.2319 225.46 64.4769 225.551 64.6916 225.677C64.9109 225.803 65.0859 225.976 65.2166 226.195C65.3519 226.41 65.4196 226.687 65.4196 227.028C65.4196 227.345 65.3402 227.653 65.1816 227.952C65.0276 228.251 64.8012 228.517 64.5026 228.75C64.2086 228.983 63.8469 229.17 63.4176 229.31C62.9882 229.455 62.4982 229.527 61.9476 229.527C61.4016 229.527 60.9279 229.473 60.5266 229.366C60.1252 229.263 59.7916 229.123 59.5256 228.946C59.2642 228.773 59.0682 228.573 58.9376 228.344C58.8069 228.115 58.7416 227.877 58.7416 227.63C58.7416 227.294 58.8442 227.012 59.0496 226.783C59.2549 226.554 59.5396 226.372 59.9036 226.237C59.7262 226.139 59.5839 226.008 59.4766 225.845C59.3692 225.682 59.3156 225.469 59.3156 225.208C59.3156 225.101 59.3342 224.991 59.3716 224.879C59.4089 224.762 59.4649 224.648 59.5396 224.536C59.6189 224.424 59.7169 224.319 59.8336 224.221C59.9502 224.118 60.0879 224.027 60.2466 223.948C59.8826 223.752 59.5956 223.491 59.3856 223.164C59.1802 222.837 59.0776 222.455 59.0776 222.016C59.0776 221.661 59.1476 221.342 59.2876 221.057C59.4322 220.768 59.6306 220.523 59.8826 220.322C60.1392 220.117 60.4402 219.96 60.7856 219.853C61.1356 219.746 61.5159 219.692 61.9266 219.692ZM63.8236 227.322C63.8236 227.182 63.7816 227.068 63.6976 226.979C63.6136 226.89 63.4992 226.823 63.3546 226.776C63.2099 226.725 63.0396 226.687 62.8436 226.664C62.6522 226.641 62.4469 226.624 62.2276 226.615C62.0129 226.601 61.7889 226.589 61.5556 226.58C61.3269 226.566 61.1052 226.545 60.8906 226.517C60.6946 226.624 60.5359 226.753 60.4146 226.902C60.2979 227.047 60.2396 227.215 60.2396 227.406C60.2396 227.532 60.2699 227.649 60.3306 227.756C60.3959 227.868 60.4962 227.964 60.6316 228.043C60.7716 228.122 60.9512 228.183 61.1706 228.225C61.3899 228.272 61.6582 228.295 61.9756 228.295C62.2976 228.295 62.5752 228.269 62.8086 228.218C63.0419 228.171 63.2332 228.104 63.3826 228.015C63.5366 227.931 63.6486 227.828 63.7186 227.707C63.7886 227.59 63.8236 227.462 63.8236 227.322ZM61.9266 223.234C62.1412 223.234 62.3279 223.206 62.4866 223.15C62.6452 223.089 62.7759 223.008 62.8786 222.905C62.9859 222.802 63.0652 222.679 63.1166 222.534C63.1726 222.389 63.2006 222.231 63.2006 222.058C63.2006 221.703 63.0932 221.423 62.8786 221.218C62.6686 221.008 62.3512 220.903 61.9266 220.903C61.5019 220.903 61.1822 221.008 60.9676 221.218C60.7576 221.423 60.6526 221.703 60.6526 222.058C60.6526 222.226 60.6782 222.382 60.7296 222.527C60.7856 222.672 60.8649 222.798 60.9676 222.905C61.0749 223.008 61.2079 223.089 61.3666 223.15C61.5299 223.206 61.7166 223.234 61.9266 223.234ZM68.2697 219.818V224.382C68.2697 224.821 68.37 225.161 68.5707 225.404C68.776 225.642 69.0817 225.761 69.4877 225.761C69.7863 225.761 70.0663 225.696 70.3277 225.565C70.589 225.43 70.8363 225.245 71.0697 225.012V219.818H72.7987V227H71.7417C71.5177 227 71.3707 226.895 71.3007 226.685L71.1817 226.111C71.0323 226.26 70.8783 226.398 70.7197 226.524C70.561 226.645 70.3907 226.75 70.2087 226.839C70.0313 226.923 69.8377 226.988 69.6277 227.035C69.4223 227.086 69.2007 227.112 68.9627 227.112C68.5707 227.112 68.223 227.047 67.9197 226.916C67.621 226.781 67.369 226.592 67.1637 226.349C66.9583 226.106 66.802 225.819 66.6947 225.488C66.592 225.152 66.5407 224.783 66.5407 224.382V219.818H68.2697ZM77.6127 219.706C78.0654 219.706 78.4807 219.778 78.8587 219.923C79.2414 220.068 79.5704 220.28 79.8457 220.56C80.121 220.835 80.3357 221.176 80.4897 221.582C80.6437 221.983 80.7207 222.443 80.7207 222.961C80.7207 223.092 80.7137 223.201 80.6997 223.29C80.6904 223.374 80.6694 223.442 80.6367 223.493C80.6087 223.54 80.569 223.575 80.5177 223.598C80.4664 223.617 80.401 223.626 80.3217 223.626H75.8837C75.935 224.363 76.1334 224.905 76.4787 225.25C76.824 225.595 77.2814 225.768 77.8507 225.768C78.1307 225.768 78.371 225.735 78.5717 225.67C78.777 225.605 78.9544 225.532 79.1037 225.453C79.2577 225.374 79.3907 225.301 79.5027 225.236C79.6194 225.171 79.7314 225.138 79.8387 225.138C79.9087 225.138 79.9694 225.152 80.0207 225.18C80.072 225.208 80.1164 225.248 80.1537 225.299L80.6577 225.929C80.4664 226.153 80.2517 226.342 80.0137 226.496C79.7757 226.645 79.526 226.767 79.2647 226.86C79.008 226.949 78.7444 227.012 78.4737 227.049C78.2077 227.086 77.9487 227.105 77.6967 227.105C77.1974 227.105 76.733 227.023 76.3037 226.86C75.8744 226.692 75.501 226.447 75.1837 226.125C74.8664 225.798 74.6167 225.397 74.4347 224.921C74.2527 224.44 74.1617 223.885 74.1617 223.255C74.1617 222.765 74.241 222.305 74.3997 221.876C74.5584 221.442 74.7847 221.066 75.0787 220.749C75.3774 220.427 75.739 220.173 76.1637 219.986C76.593 219.799 77.076 219.706 77.6127 219.706ZM77.6477 220.945C77.1437 220.945 76.7494 221.087 76.4647 221.372C76.18 221.657 75.998 222.06 75.9187 222.583H79.1667C79.1667 222.359 79.1364 222.149 79.0757 221.953C79.015 221.752 78.9217 221.577 78.7957 221.428C78.6697 221.279 78.511 221.162 78.3197 221.078C78.1284 220.989 77.9044 220.945 77.6477 220.945Z" fill="#222222"/>
<rect x="36.5" y="164.5" width="327" height="31" rx="3.5" fill="white" stroke="#A5C3FF"/>
<path d="M348.811 186.876C348.412 187.429 347.588 187.429 347.189 186.876L340.484 177.585C340.006 176.924 340.479 176 341.295 176H354.705C355.521 176 355.994 176.924 355.516 177.585L348.811 186.876Z" fill="#A5C3FF"/>
<path d="M41.67 157.614C42.0947 157.614 42.4633 157.577 42.776 157.502C43.0933 157.423 43.3943 157.315 43.679 157.18V155.339H42.412C42.2907 155.339 42.195 155.306 42.125 155.241C42.055 155.171 42.02 155.087 42.02 154.989V153.925H45.387V158.02C45.1303 158.207 44.862 158.37 44.582 158.51C44.3067 158.645 44.0103 158.757 43.693 158.846C43.3803 158.935 43.0443 159 42.685 159.042C42.3257 159.089 41.9383 159.112 41.523 159.112C40.7857 159.112 40.1067 158.984 39.486 158.727C38.8653 158.47 38.3287 158.113 37.876 157.656C37.4233 157.199 37.0687 156.653 36.812 156.018C36.56 155.383 36.434 154.69 36.434 153.939C36.434 153.178 36.5577 152.481 36.805 151.846C37.0523 151.211 37.4023 150.665 37.855 150.208C38.3123 149.751 38.8653 149.396 39.514 149.144C40.1627 148.892 40.8907 148.766 41.698 148.766C42.524 148.766 43.238 148.89 43.84 149.137C44.4467 149.38 44.96 149.697 45.38 150.089L44.834 150.943C44.7267 151.116 44.5843 151.202 44.407 151.202C44.295 151.202 44.1807 151.165 44.064 151.09C43.9147 151.001 43.7607 150.913 43.602 150.824C43.448 150.735 43.2753 150.658 43.084 150.593C42.8973 150.528 42.685 150.474 42.447 150.432C42.2137 150.39 41.943 150.369 41.635 150.369C41.1357 150.369 40.683 150.453 40.277 150.621C39.8757 150.789 39.5327 151.029 39.248 151.342C38.9633 151.655 38.744 152.03 38.59 152.469C38.436 152.908 38.359 153.398 38.359 153.939C38.359 154.522 38.4407 155.043 38.604 155.5C38.7673 155.953 38.996 156.335 39.29 156.648C39.584 156.961 39.934 157.201 40.34 157.369C40.746 157.532 41.1893 157.614 41.67 157.614ZM50.0092 151.706C50.4619 151.706 50.8772 151.778 51.2552 151.923C51.6379 152.068 51.9669 152.28 52.2422 152.56C52.5175 152.835 52.7322 153.176 52.8862 153.582C53.0402 153.983 53.1172 154.443 53.1172 154.961C53.1172 155.092 53.1102 155.201 53.0962 155.29C53.0869 155.374 53.0659 155.442 53.0332 155.493C53.0052 155.54 52.9655 155.575 52.9142 155.598C52.8629 155.617 52.7975 155.626 52.7182 155.626H48.2802C48.3315 156.363 48.5299 156.905 48.8752 157.25C49.2205 157.595 49.6779 157.768 50.2472 157.768C50.5272 157.768 50.7675 157.735 50.9682 157.67C51.1735 157.605 51.3509 157.532 51.5002 157.453C51.6542 157.374 51.7872 157.301 51.8992 157.236C52.0159 157.171 52.1279 157.138 52.2352 157.138C52.3052 157.138 52.3659 157.152 52.4172 157.18C52.4685 157.208 52.5129 157.248 52.5502 157.299L53.0542 157.929C52.8629 158.153 52.6482 158.342 52.4102 158.496C52.1722 158.645 51.9225 158.767 51.6612 158.86C51.4045 158.949 51.1409 159.012 50.8702 159.049C50.6042 159.086 50.3452 159.105 50.0932 159.105C49.5939 159.105 49.1295 159.023 48.7002 158.86C48.2709 158.692 47.8975 158.447 47.5802 158.125C47.2629 157.798 47.0132 157.397 46.8312 156.921C46.6492 156.44 46.5582 155.885 46.5582 155.255C46.5582 154.765 46.6375 154.305 46.7962 153.876C46.9549 153.442 47.1812 153.066 47.4752 152.749C47.7739 152.427 48.1355 152.173 48.5602 151.986C48.9895 151.799 49.4725 151.706 50.0092 151.706ZM50.0442 152.945C49.5402 152.945 49.1459 153.087 48.8612 153.372C48.5765 153.657 48.3945 154.06 48.3152 154.583H51.5632C51.5632 154.359 51.5329 154.149 51.4722 153.953C51.4115 153.752 51.3182 153.577 51.1922 153.428C51.0662 153.279 50.9075 153.162 50.7162 153.078C50.5249 152.989 50.3009 152.945 50.0442 152.945ZM54.5197 159V151.818H55.5767C55.8007 151.818 55.9477 151.923 56.0177 152.133L56.1367 152.7C56.2814 152.551 56.433 152.415 56.5917 152.294C56.755 152.173 56.9254 152.068 57.1027 151.979C57.2847 151.89 57.4784 151.823 57.6837 151.776C57.889 151.729 58.113 151.706 58.3557 151.706C58.7477 151.706 59.0954 151.774 59.3987 151.909C59.702 152.04 59.954 152.226 60.1547 152.469C60.36 152.707 60.514 152.994 60.6167 153.33C60.724 153.661 60.7777 154.028 60.7777 154.429V159H59.0487V154.429C59.0487 153.99 58.946 153.652 58.7407 153.414C58.54 153.171 58.2367 153.05 57.8307 153.05C57.532 153.05 57.252 153.118 56.9907 153.253C56.7294 153.388 56.482 153.573 56.2487 153.806V159H54.5197ZM62.4767 159V151.818H63.4917C63.6691 151.818 63.7927 151.851 63.8627 151.916C63.9327 151.981 63.9794 152.093 64.0027 152.252L64.1077 153.12C64.3644 152.677 64.6654 152.327 65.0107 152.07C65.3561 151.813 65.7434 151.685 66.1727 151.685C66.5274 151.685 66.8214 151.767 67.0547 151.93L66.8307 153.225C66.8167 153.309 66.7864 153.37 66.7397 153.407C66.6931 153.44 66.6301 153.456 66.5507 153.456C66.4807 153.456 66.3851 153.44 66.2637 153.407C66.1424 153.374 65.9814 153.358 65.7807 153.358C65.4214 153.358 65.1134 153.458 64.8567 153.659C64.6001 153.855 64.3831 154.144 64.2057 154.527V159H62.4767ZM71.1596 151.706C71.6122 151.706 72.0276 151.778 72.4056 151.923C72.7882 152.068 73.1172 152.28 73.3926 152.56C73.6679 152.835 73.8826 153.176 74.0366 153.582C74.1906 153.983 74.2676 154.443 74.2676 154.961C74.2676 155.092 74.2606 155.201 74.2466 155.29C74.2372 155.374 74.2162 155.442 74.1836 155.493C74.1556 155.54 74.1159 155.575 74.0646 155.598C74.0132 155.617 73.9479 155.626 73.8686 155.626H69.4306C69.4819 156.363 69.6802 156.905 70.0256 157.25C70.3709 157.595 70.8282 157.768 71.3976 157.768C71.6776 157.768 71.9179 157.735 72.1186 157.67C72.3239 157.605 72.5012 157.532 72.6506 157.453C72.8046 157.374 72.9376 157.301 73.0496 157.236C73.1662 157.171 73.2782 157.138 73.3856 157.138C73.4556 157.138 73.5162 157.152 73.5676 157.18C73.6189 157.208 73.6632 157.248 73.7006 157.299L74.2046 157.929C74.0132 158.153 73.7986 158.342 73.5606 158.496C73.3226 158.645 73.0729 158.767 72.8116 158.86C72.5549 158.949 72.2912 159.012 72.0206 159.049C71.7546 159.086 71.4956 159.105 71.2436 159.105C70.7442 159.105 70.2799 159.023 69.8506 158.86C69.4212 158.692 69.0479 158.447 68.7306 158.125C68.4132 157.798 68.1636 157.397 67.9816 156.921C67.7996 156.44 67.7086 155.885 67.7086 155.255C67.7086 154.765 67.7879 154.305 67.9466 153.876C68.1052 153.442 68.3316 153.066 68.6256 152.749C68.9242 152.427 69.2859 152.173 69.7106 151.986C70.1399 151.799 70.6229 151.706 71.1596 151.706ZM71.1946 152.945C70.6906 152.945 70.2962 153.087 70.0116 153.372C69.7269 153.657 69.5449 154.06 69.4656 154.583H72.7136C72.7136 154.359 72.6832 154.149 72.6226 153.953C72.5619 153.752 72.4686 153.577 72.3426 153.428C72.2166 153.279 72.0579 153.162 71.8666 153.078C71.6752 152.989 71.4512 152.945 71.1946 152.945Z" fill="#222222"/>
<rect x="36.5" y="96.5" width="327" height="31" rx="3.5" fill="white" stroke="#A5C3FF"/>
<path d="M348.811 118.876C348.412 119.429 347.588 119.429 347.189 118.876L340.484 109.585C340.006 108.924 340.479 108 341.295 108H354.705C355.521 108 355.994 108.924 355.516 109.585L348.811 118.876Z" fill="#A5C3FF"/>
<path d="M41.612 89.446H45.665V91H39.729V80.878H41.612V89.446ZM49.6697 83.706C50.2064 83.706 50.6917 83.7923 51.1257 83.965C51.5644 84.1377 51.9377 84.3827 52.2457 84.7C52.5537 85.0173 52.7917 85.4047 52.9597 85.862C53.1277 86.3193 53.2117 86.8303 53.2117 87.395C53.2117 87.9643 53.1277 88.4777 52.9597 88.935C52.7917 89.3923 52.5537 89.782 52.2457 90.104C51.9377 90.426 51.5644 90.6733 51.1257 90.846C50.6917 91.0187 50.2064 91.105 49.6697 91.105C49.133 91.105 48.6454 91.0187 48.2067 90.846C47.768 90.6733 47.3924 90.426 47.0797 90.104C46.7717 89.782 46.5314 89.3923 46.3587 88.935C46.1907 88.4777 46.1067 87.9643 46.1067 87.395C46.1067 86.8303 46.1907 86.3193 46.3587 85.862C46.5314 85.4047 46.7717 85.0173 47.0797 84.7C47.3924 84.3827 47.768 84.1377 48.2067 83.965C48.6454 83.7923 49.133 83.706 49.6697 83.706ZM49.6697 89.775C50.267 89.775 50.708 89.5743 50.9927 89.173C51.282 88.7717 51.4267 88.1837 51.4267 87.409C51.4267 86.6343 51.282 86.044 50.9927 85.638C50.708 85.232 50.267 85.029 49.6697 85.029C49.063 85.029 48.615 85.2343 48.3257 85.645C48.0364 86.051 47.8917 86.639 47.8917 87.409C47.8917 88.179 48.0364 88.767 48.3257 89.173C48.615 89.5743 49.063 89.775 49.6697 89.775ZM59.6077 85.337C59.5564 85.4023 59.5051 85.4537 59.4537 85.491C59.4071 85.5283 59.3371 85.547 59.2437 85.547C59.1551 85.547 59.0687 85.5213 58.9847 85.47C58.9007 85.414 58.8004 85.3533 58.6837 85.288C58.5671 85.218 58.4271 85.1573 58.2637 85.106C58.1051 85.05 57.9067 85.022 57.6687 85.022C57.3654 85.022 57.0994 85.078 56.8707 85.19C56.6421 85.2973 56.4507 85.4537 56.2967 85.659C56.1474 85.8643 56.0354 86.114 55.9607 86.408C55.8861 86.6973 55.8487 87.0263 55.8487 87.395C55.8487 87.7777 55.8884 88.1183 55.9677 88.417C56.0517 88.7157 56.1707 88.9677 56.3247 89.173C56.4787 89.3737 56.6654 89.5277 56.8847 89.635C57.1041 89.7377 57.3514 89.789 57.6267 89.789C57.9021 89.789 58.1237 89.7563 58.2917 89.691C58.4644 89.621 58.6091 89.5463 58.7257 89.467C58.8424 89.383 58.9427 89.3083 59.0267 89.243C59.1154 89.173 59.2134 89.138 59.3207 89.138C59.4607 89.138 59.5657 89.1917 59.6357 89.299L60.1327 89.929C59.9414 90.153 59.7337 90.342 59.5097 90.496C59.2857 90.6453 59.0524 90.7667 58.8097 90.86C58.5717 90.9487 58.3244 91.0117 58.0677 91.049C57.8111 91.0863 57.5567 91.105 57.3047 91.105C56.8614 91.105 56.4437 91.0233 56.0517 90.86C55.6597 90.692 55.3167 90.4493 55.0227 90.132C54.7334 89.8147 54.5024 89.4273 54.3297 88.97C54.1617 88.508 54.0777 87.983 54.0777 87.395C54.0777 86.8677 54.1524 86.38 54.3017 85.932C54.4557 85.4793 54.6797 85.0897 54.9737 84.763C55.2677 84.4317 55.6317 84.1727 56.0657 83.986C56.4997 83.7993 56.9991 83.706 57.5637 83.706C58.1004 83.706 58.5694 83.7923 58.9707 83.965C59.3767 84.1377 59.7407 84.385 60.0627 84.707L59.6077 85.337ZM62.8146 83.818V88.382C62.8146 88.8207 62.9149 89.1613 63.1156 89.404C63.3209 89.642 63.6266 89.761 64.0326 89.761C64.3313 89.761 64.6113 89.6957 64.8726 89.565C65.1339 89.4297 65.3813 89.2453 65.6146 89.012V83.818H67.3436V91H66.2866C66.0626 91 65.9156 90.895 65.8456 90.685L65.7266 90.111C65.5773 90.2603 65.4233 90.398 65.2646 90.524C65.1059 90.6453 64.9356 90.7503 64.7536 90.839C64.5763 90.923 64.3826 90.9883 64.1726 91.035C63.9673 91.0863 63.7456 91.112 63.5076 91.112C63.1156 91.112 62.7679 91.0467 62.4646 90.916C62.1659 90.7807 61.9139 90.5917 61.7086 90.349C61.5033 90.1063 61.3469 89.8193 61.2396 89.488C61.1369 89.152 61.0856 88.7833 61.0856 88.382V83.818H62.8146ZM71.5486 91.112C70.928 91.112 70.4496 90.937 70.1136 90.587C69.7776 90.2323 69.6096 89.7447 69.6096 89.124V85.113H68.8816C68.7883 85.113 68.7066 85.0827 68.6366 85.022C68.5713 84.9613 68.5386 84.8703 68.5386 84.749V84.063L69.6936 83.874L70.0576 81.914C70.0763 81.8207 70.1183 81.7483 70.1836 81.697C70.2536 81.6457 70.34 81.62 70.4426 81.62H71.3386V83.881H73.2286V85.113H71.3386V89.005C71.3386 89.229 71.3946 89.404 71.5066 89.53C71.6186 89.656 71.768 89.719 71.9546 89.719C72.062 89.719 72.1506 89.7073 72.2206 89.684C72.2953 89.656 72.3583 89.628 72.4096 89.6C72.4656 89.572 72.5146 89.5463 72.5566 89.523C72.5986 89.495 72.6406 89.481 72.6826 89.481C72.734 89.481 72.776 89.495 72.8086 89.523C72.8413 89.5463 72.8763 89.5837 72.9136 89.635L73.4316 90.475C73.1796 90.685 72.8903 90.8437 72.5636 90.951C72.237 91.0583 71.8986 91.112 71.5486 91.112ZM77.5717 83.706C78.0244 83.706 78.4397 83.7783 78.8177 83.923C79.2004 84.0677 79.5294 84.28 79.8047 84.56C80.08 84.8353 80.2947 85.176 80.4487 85.582C80.6027 85.9833 80.6797 86.443 80.6797 86.961C80.6797 87.0917 80.6727 87.2013 80.6587 87.29C80.6494 87.374 80.6284 87.4417 80.5957 87.493C80.5677 87.5397 80.528 87.5747 80.4767 87.598C80.4254 87.6167 80.36 87.626 80.2807 87.626H75.8427C75.894 88.3633 76.0924 88.9047 76.4377 89.25C76.783 89.5953 77.2404 89.768 77.8097 89.768C78.0897 89.768 78.33 89.7353 78.5307 89.67C78.736 89.6047 78.9134 89.5323 79.0627 89.453C79.2167 89.3737 79.3497 89.3013 79.4617 89.236C79.5784 89.1707 79.6904 89.138 79.7977 89.138C79.8677 89.138 79.9284 89.152 79.9797 89.18C80.031 89.208 80.0754 89.2477 80.1127 89.299L80.6167 89.929C80.4254 90.153 80.2107 90.342 79.9727 90.496C79.7347 90.6453 79.485 90.7667 79.2237 90.86C78.967 90.9487 78.7034 91.0117 78.4327 91.049C78.1667 91.0863 77.9077 91.105 77.6557 91.105C77.1564 91.105 76.692 91.0233 76.2627 90.86C75.8334 90.692 75.46 90.447 75.1427 90.125C74.8254 89.7983 74.5757 89.397 74.3937 88.921C74.2117 88.4403 74.1207 87.885 74.1207 87.255C74.1207 86.765 74.2 86.3053 74.3587 85.876C74.5174 85.442 74.7437 85.0663 75.0377 84.749C75.3364 84.427 75.698 84.1727 76.1227 83.986C76.552 83.7993 77.035 83.706 77.5717 83.706ZM77.6067 84.945C77.1027 84.945 76.7084 85.0873 76.4237 85.372C76.139 85.6567 75.957 86.0603 75.8777 86.583H79.1257C79.1257 86.359 79.0954 86.149 79.0347 85.953C78.974 85.7523 78.8807 85.5773 78.7547 85.428C78.6287 85.2787 78.47 85.162 78.2787 85.078C78.0874 84.9893 77.8634 84.945 77.6067 84.945ZM83.6642 83.818V88.382C83.6642 88.8207 83.7645 89.1613 83.9652 89.404C84.1705 89.642 84.4762 89.761 84.8822 89.761C85.1809 89.761 85.4609 89.6957 85.7222 89.565C85.9835 89.4297 86.2309 89.2453 86.4642 89.012V83.818H88.1932V91H87.1362C86.9122 91 86.7652 90.895 86.6952 90.685L86.5762 90.111C86.4269 90.2603 86.2729 90.398 86.1142 90.524C85.9555 90.6453 85.7852 90.7503 85.6032 90.839C85.4259 90.923 85.2322 90.9883 85.0222 91.035C84.8169 91.0863 84.5952 91.112 84.3572 91.112C83.9652 91.112 83.6175 91.0467 83.3142 90.916C83.0155 90.7807 82.7635 90.5917 82.5582 90.349C82.3529 90.1063 82.1965 89.8193 82.0892 89.488C81.9865 89.152 81.9352 88.7833 81.9352 88.382V83.818H83.6642ZM90.0392 91V83.818H91.0542C91.2316 83.818 91.3552 83.8507 91.4252 83.916C91.4952 83.9813 91.5419 84.0933 91.5652 84.252L91.6702 85.12C91.9269 84.6767 92.2279 84.3267 92.5732 84.07C92.9186 83.8133 93.3059 83.685 93.7352 83.685C94.0899 83.685 94.3839 83.7667 94.6172 83.93L94.3932 85.225C94.3792 85.309 94.3489 85.3697 94.3022 85.407C94.2556 85.4397 94.1926 85.456 94.1132 85.456C94.0432 85.456 93.9476 85.4397 93.8262 85.407C93.7049 85.3743 93.5439 85.358 93.3432 85.358C92.9839 85.358 92.6759 85.4583 92.4192 85.659C92.1626 85.855 91.9456 86.1443 91.7682 86.527V91H90.0392ZM95.4671 86.835C95.4671 86.653 95.4997 86.4827 95.5651 86.324C95.6351 86.1607 95.7284 86.0207 95.8451 85.904C95.9664 85.7827 96.1064 85.6893 96.2651 85.624C96.4237 85.554 96.5941 85.519 96.7761 85.519C96.9627 85.519 97.1354 85.554 97.2941 85.624C97.4574 85.6893 97.5974 85.7827 97.7141 85.904C97.8354 86.0207 97.9311 86.1607 98.0011 86.324C98.0711 86.4827 98.1061 86.653 98.1061 86.835C98.1061 87.017 98.0711 87.1873 98.0011 87.346C97.9311 87.5 97.8354 87.6377 97.7141 87.759C97.5974 87.8757 97.4574 87.969 97.2941 88.039C97.1354 88.1043 96.9627 88.137 96.7761 88.137C96.5941 88.137 96.4237 88.1043 96.2651 88.039C96.1064 87.969 95.9664 87.8757 95.8451 87.759C95.7284 87.6377 95.6351 87.5 95.5651 87.346C95.4997 87.1873 95.4671 87.017 95.4671 86.835ZM102.023 91.112C101.403 91.112 100.924 90.937 100.588 90.587C100.252 90.2323 100.084 89.7447 100.084 89.124V85.113H99.3562C99.2629 85.113 99.1812 85.0827 99.1112 85.022C99.0459 84.9613 99.0132 84.8703 99.0132 84.749V84.063L100.168 83.874L100.532 81.914C100.551 81.8207 100.593 81.7483 100.658 81.697C100.728 81.6457 100.815 81.62 100.917 81.62H101.813V83.881H103.703V85.113H101.813V89.005C101.813 89.229 101.869 89.404 101.981 89.53C102.093 89.656 102.243 89.719 102.429 89.719C102.537 89.719 102.625 89.7073 102.695 89.684C102.77 89.656 102.833 89.628 102.884 89.6C102.94 89.572 102.989 89.5463 103.031 89.523C103.073 89.495 103.115 89.481 103.157 89.481C103.209 89.481 103.251 89.495 103.283 89.523C103.316 89.5463 103.351 89.5837 103.388 89.635L103.906 90.475C103.654 90.685 103.365 90.8437 103.038 90.951C102.712 91.0583 102.373 91.112 102.023 91.112ZM105.078 91V83.818H106.093C106.271 83.818 106.394 83.8507 106.464 83.916C106.534 83.9813 106.581 84.0933 106.604 84.252L106.709 85.12C106.966 84.6767 107.267 84.3267 107.612 84.07C107.958 83.8133 108.345 83.685 108.774 83.685C109.129 83.685 109.423 83.7667 109.656 83.93L109.432 85.225C109.418 85.309 109.388 85.3697 109.341 85.407C109.295 85.4397 109.232 85.456 109.152 85.456C109.082 85.456 108.987 85.4397 108.865 85.407C108.744 85.3743 108.583 85.358 108.382 85.358C108.023 85.358 107.715 85.4583 107.458 85.659C107.202 85.855 106.985 86.1443 106.807 86.527V91H105.078ZM112.634 83.818V91H110.905V83.818H112.634ZM112.893 81.725C112.893 81.8743 112.863 82.0143 112.802 82.145C112.741 82.2757 112.66 82.39 112.557 82.488C112.459 82.586 112.342 82.6653 112.207 82.726C112.072 82.782 111.927 82.81 111.773 82.81C111.624 82.81 111.481 82.782 111.346 82.726C111.215 82.6653 111.101 82.586 111.003 82.488C110.905 82.39 110.826 82.2757 110.765 82.145C110.709 82.0143 110.681 81.8743 110.681 81.725C110.681 81.571 110.709 81.4263 110.765 81.291C110.826 81.1557 110.905 81.039 111.003 80.941C111.101 80.843 111.215 80.766 111.346 80.71C111.481 80.6493 111.624 80.619 111.773 80.619C111.927 80.619 112.072 80.6493 112.207 80.71C112.342 80.766 112.459 80.843 112.557 80.941C112.66 81.039 112.741 81.1557 112.802 81.291C112.863 81.4263 112.893 81.571 112.893 81.725ZM119.641 85.337C119.59 85.4023 119.538 85.4537 119.487 85.491C119.44 85.5283 119.37 85.547 119.277 85.547C119.188 85.547 119.102 85.5213 119.018 85.47C118.934 85.414 118.834 85.3533 118.717 85.288C118.6 85.218 118.46 85.1573 118.297 85.106C118.138 85.05 117.94 85.022 117.702 85.022C117.399 85.022 117.133 85.078 116.904 85.19C116.675 85.2973 116.484 85.4537 116.33 85.659C116.181 85.8643 116.069 86.114 115.994 86.408C115.919 86.6973 115.882 87.0263 115.882 87.395C115.882 87.7777 115.922 88.1183 116.001 88.417C116.085 88.7157 116.204 88.9677 116.358 89.173C116.512 89.3737 116.699 89.5277 116.918 89.635C117.137 89.7377 117.385 89.789 117.66 89.789C117.935 89.789 118.157 89.7563 118.325 89.691C118.498 89.621 118.642 89.5463 118.759 89.467C118.876 89.383 118.976 89.3083 119.06 89.243C119.149 89.173 119.247 89.138 119.354 89.138C119.494 89.138 119.599 89.1917 119.669 89.299L120.166 89.929C119.975 90.153 119.767 90.342 119.543 90.496C119.319 90.6453 119.086 90.7667 118.843 90.86C118.605 90.9487 118.358 91.0117 118.101 91.049C117.844 91.0863 117.59 91.105 117.338 91.105C116.895 91.105 116.477 91.0233 116.085 90.86C115.693 90.692 115.35 90.4493 115.056 90.132C114.767 89.8147 114.536 89.4273 114.363 88.97C114.195 88.508 114.111 87.983 114.111 87.395C114.111 86.8677 114.186 86.38 114.335 85.932C114.489 85.4793 114.713 85.0897 115.007 84.763C115.301 84.4317 115.665 84.1727 116.099 83.986C116.533 83.7993 117.032 83.706 117.597 83.706C118.134 83.706 118.603 83.7923 119.004 83.965C119.41 84.1377 119.774 84.385 120.096 84.707L119.641 85.337ZM124.234 83.706C124.686 83.706 125.102 83.7783 125.48 83.923C125.862 84.0677 126.191 84.28 126.467 84.56C126.742 84.8353 126.957 85.176 127.111 85.582C127.265 85.9833 127.342 86.443 127.342 86.961C127.342 87.0917 127.335 87.2013 127.321 87.29C127.311 87.374 127.29 87.4417 127.258 87.493C127.23 87.5397 127.19 87.5747 127.139 87.598C127.087 87.6167 127.022 87.626 126.943 87.626H122.505C122.556 88.3633 122.754 88.9047 123.1 89.25C123.445 89.5953 123.902 89.768 124.472 89.768C124.752 89.768 124.992 89.7353 125.193 89.67C125.398 89.6047 125.575 89.5323 125.725 89.453C125.879 89.3737 126.012 89.3013 126.124 89.236C126.24 89.1707 126.352 89.138 126.46 89.138C126.53 89.138 126.59 89.152 126.642 89.18C126.693 89.208 126.737 89.2477 126.775 89.299L127.279 89.929C127.087 90.153 126.873 90.342 126.635 90.496C126.397 90.6453 126.147 90.7667 125.886 90.86C125.629 90.9487 125.365 91.0117 125.095 91.049C124.829 91.0863 124.57 91.105 124.318 91.105C123.818 91.105 123.354 91.0233 122.925 90.86C122.495 90.692 122.122 90.447 121.805 90.125C121.487 89.7983 121.238 89.397 121.056 88.921C120.874 88.4403 120.783 87.885 120.783 87.255C120.783 86.765 120.862 86.3053 121.021 85.876C121.179 85.442 121.406 85.0663 121.7 84.749C121.998 84.427 122.36 84.1727 122.785 83.986C123.214 83.7993 123.697 83.706 124.234 83.706ZM124.269 84.945C123.765 84.945 123.37 85.0873 123.086 85.372C122.801 85.6567 122.619 86.0603 122.54 86.583H125.788C125.788 86.359 125.757 86.149 125.697 85.953C125.636 85.7523 125.543 85.5773 125.417 85.428C125.291 85.2787 125.132 85.162 124.941 85.078C124.749 84.9893 124.525 84.945 124.269 84.945Z" fill="#222222"/>
<defs>
<filter id="filter0_d_32_2" x="0" y="0" width="400" height="600" filterUnits="userSpaceOnUse" color-interpolation-filters="sRGB">
<feFlood flood-opacity="0" result="BackgroundImageFix"/>
<feColorMatrix in="SourceAlpha" type="matrix" values="0 0 0 0 0 0 0 0 0 0 0 0 0 0 0 0 0 0 127 0" result="hardAlpha"/>
<feOffset dy="8"/>
<feGaussianBlur stdDeviation="10"/>
<feComposite in2="hardAlpha" operator="out"/>
<feColorMatrix type="matrix" values="0 0 0 0 0 0 0 0 0 0 0 0 0 0 0 0 0 0 0.17 0"/>
<feBlend mode="normal" in2="BackgroundImageFix" result="effect1_dropShadow_32_2"/>
<feBlend mode="normal" in="SourceGraphic" in2="effect1_dropShadow_32_2" result="shape"/>
</filter>
<filter id="filter1_d_32_2" x="16" y="420" width="368" height="88" filterUnits="userSpaceOnUse" color-interpolation-filters="sRGB">
<feFlood flood-opacity="0" result="BackgroundImageFix"/>
<feColorMatrix in="SourceAlpha" type="matrix" values="0 0 0 0 0 0 0 0 0 0 0 0 0 0 0 0 0 0 127 0" result="hardAlpha"/>
<feOffset dy="8"/>
<feGaussianBlur stdDeviation="10"/>
<feComposite in2="hardAlpha" operator="out"/>
<feColorMatrix type="matrix" values="0 0 0 0 0.2 0 0 0 0 0.4 0 0 0 0 0.8 0 0 0 0.17 0"/>
<feBlend mode="normal" in2="BackgroundImageFix" result="effect1_dropShadow_32_2"/>
<feBlend mode="normal" in="SourceGraphic" in2="effect1_dropShadow_32_2" result="shape"/>
</filter>
</defs>
</svg>
