<?xml version="1.0" encoding="UTF-8" standalone="no"?>
<!-- Created with Inkscape (http://www.inkscape.org/) -->

<svg
   xmlns:dc="http://purl.org/dc/elements/1.1/"
   xmlns:cc="http://creativecommons.org/ns#"
   xmlns:rdf="http://www.w3.org/1999/02/22-rdf-syntax-ns#"
   xmlns:svg="http://www.w3.org/2000/svg"
   xmlns="http://www.w3.org/2000/svg"
   xmlns:sodipodi="http://sodipodi.sourceforge.net/DTD/sodipodi-0.dtd"
   xmlns:inkscape="http://www.inkscape.org/namespaces/inkscape"
   version="1.1"
   id="svg974"
   width="240"
   height="172"
   viewBox="0 0 240 172"
   sodipodi:docname="Lingualibre-logo.svg"
   inkscape:version="0.92.5 (2060ec1f9f, 2020-04-08)">
  <metadata
     id="metadata980">
    <rdf:RDF>
      <cc:Work
         rdf:about="">
        <dc:format>image/svg+xml</dc:format>
        <dc:type
           rdf:resource="http://purl.org/dc/dcmitype/StillImage" />
        <dc:title></dc:title>
      </cc:Work>
    </rdf:RDF>
  </metadata>
  <defs
     id="defs978" />
  <sodipodi:namedview
     pagecolor="#ffffff"
     bordercolor="#666666"
     borderopacity="1"
     objecttolerance="10"
     gridtolerance="10"
     guidetolerance="10"
     inkscape:pageopacity="0"
     inkscape:pageshadow="2"
     inkscape:window-width="1920"
     inkscape:window-height="1023"
     id="namedview976"
     showgrid="false"
     inkscape:zoom="1.9805537"
     inkscape:cx="-54.466475"
     inkscape:cy="75.96282"
     inkscape:window-x="0"
     inkscape:window-y="25"
     inkscape:window-maximized="1"
     inkscape:current-layer="svg974"
     fit-margin-top="0"
     fit-margin-left="0"
     fit-margin-right="0"
     fit-margin-bottom="0" />
  <g
     id="g984"
     transform="translate(0.52883185,1.6939451)" />
  <path
     style="fill:#3366cc;fill-opacity:1;stroke-width:0.63999999"
     d="M 97.462227,97.435239 C 94.484198,92.812532 91.208874,88.570004 90.644202,81.151156 90.080983,73.751374 88.464516,68.597678 84.421456,61.311453 78.588196,50.799012 69.408514,40.656744 58.309802,32.461719 c -3.52,-2.599085 -9.020248,-7.254666 -12.222772,-10.345737 -3.202526,-3.09107 -6.010526,-5.620128 -6.24,-5.620128 -1.48416,0 2.939443,9.139548 7.552574,15.604271 3.584273,5.022908 10.732883,11.85331 14.866366,14.204616 3.753733,2.135287 4.683832,3.207972 4.683832,5.401875 0,1.899463 -2.364172,4.469238 -4.111663,4.469238 -2.327696,0 -18.57458,-9.740289 -20.879624,-12.517699 -1.022627,-1.23219 -1.888713,-1.167227 -1.888713,0.141669 0,3.657936 8.741039,12.648827 17.502532,18.00282 5.242884,3.203834 8.097468,5.845402 8.097468,7.49321 0,0.433062 -0.596903,1.546221 -1.326451,2.47369 -2.030676,2.581587 -4.497788,2.220281 -10.513549,-1.539706 -2.816,-1.760064 -5.769217,-3.529018 -6.562705,-3.931014 -2.702924,-1.369338 -2.326805,0.139705 0.84129,3.375379 4.993393,5.099917 14.498325,10.88103 19.551482,11.891667 3.829671,0.765933 5.083066,5.484173 2.083623,7.843533 -2.090416,1.64432 -2.449083,1.643488 -6.708344,-0.01555 C 51.419315,84.869204 41.699025,77.653851 36.273006,69.528321 c -2.189639,-3.279008 -2.603204,-4.413984 -2.603204,-7.144148 0,-2.474373 0.338439,-3.606074 1.423963,-4.761561 1.370959,-1.459319 1.383288,-1.579966 0.331201,-3.241248 -3.096019,-4.888723 -4.302792,-8.203926 -4.308912,-11.837292 -0.0072,-4.263753 1.097528,-6.819858 3.769818,-8.722696 L 36.761257,32.485985 33.991532,26.89092 C 32.468183,23.813633 30.882076,19.610418 30.46685,17.55044 28.06295,5.6244617 37.291126,-3.2784158 43.301163,5.1685439 c 6.146599,8.6388931 11.54581,13.9825431 20.498252,20.2873101 5.187597,3.65337 18.621216,16.948231 22.633785,22.4 1.683994,2.288 4.9938,6.558319 5.349512,6.558319 0.355706,0 2.793515,-4.36912 3.604772,-6.777877 2.785229,-8.269776 5.740396,-12.084359 13.700566,-15.946801 4.96592,-2.409568 4.49523,-3.707589 11.71982,-3.724168 6.71532,-0.01541 7.16892,1.313538 11.5352,3.06167 8.19414,3.280688 15.83936,9.356952 18.14043,18.076383 0.4133,1.566139 -0.35427,3.825376 -0.009,3.94058 0.34561,0.115205 4.18762,-3.489773 6.84072,-6.931117 5.89887,-7.651401 12.59666,-14.091797 22.28105,-21.424803 8.54685,-6.471662 14.10703,-11.94968 18.05904,-17.7921858 2.23982,-3.3112694 3.27346,-4.2755899 5.0663,-4.7265563 6.05915,-1.52409884 10.46768,5.5621543 9.16643,14.7340621 -0.24287,1.711872 -1.7428,5.90762 -3.33319,9.323887 l -2.89161,6.211392 2.02652,1.705201 c 2.73331,2.299925 4.06759,5.636178 3.73102,9.329051 -0.25963,2.848596 -2.7914,8.66042 -4.73443,10.868146 -0.80954,0.919826 -0.72419,1.333534 0.71162,3.44931 0.89731,1.32227 1.63148,3.231076 1.63148,4.241792 0,6.760182 -12.67354,19.737577 -24.60542,25.195331 -4.53509,2.074394 -8.51783,3.508384 -9.74414,3.508384 -1.4452,0 -4.05044,-2.996877 -4.05044,-4.659347 0,-1.87337 2.24234,-4.052992 4.8,-4.665767 5.59886,-1.341388 16.38924,-8.313913 20.08228,-12.976761 1.77277,-2.238291 1.91989,-2.657805 0.9315,-2.65609 -0.64558,0.0013 -2.90178,1.168551 -5.01378,2.594285 -2.112,1.425741 -4.90852,3.152819 -6.2145,3.837965 -4.57593,2.400627 -8.1855,1.046445 -8.1855,-3.070899 0,-2.214759 1.94298,-3.997818 8.58122,-7.874935 6.59797,-3.853597 16.37878,-13.805876 16.37878,-16.665922 0,-1.742331 -0.70394,-1.541079 -4.2364,1.21116 -3.88197,3.024562 -10.42628,7.060778 -14.62996,9.023063 -3.78421,1.76648 -5.94131,1.332751 -7.28184,-1.464169 -1.27586,-2.662013 -0.24616,-4.288716 4.82871,-7.628271 7.74145,-5.094313 14.26279,-12.436175 19.26889,-21.69333 1.96871,-3.63984 3.55748,-8.190982 2.85977,-8.190982 -0.2024,0 -2.41119,2.09498 -4.90841,4.655512 -2.49723,2.560531 -7.13241,6.656202 -10.30041,9.10149 -17.12142,13.215534 -24.62278,21.448696 -30.90773,33.922998 -3.49137,6.929619 -4.61251,10.945632 -5.27067,18.88 -0.64191,7.738413 -1.93647,11.67671 -5.62248,17.104582 C 124.59261,111.74977 109.90946,116.3031 97.462227,97.435239 Z M 116.20543,34.316217 c -2.19148,0 -9.34064,3.061939 -12.14343,5.992348 -3.09348,3.23435 -6.643778,9.611102 -6.361046,11.596424 1.328561,22.808822 1.546199,37.197871 1.907575,41.091737 0.555331,5.090209 12.614201,9.970424 16.378741,11.691294 5.28632,-6.760215 2.04735,-70.303086 0.21816,-70.371803 z m 27.89646,53.118908 c 0.21996,-12.292557 0.78964,-7.607169 0.21996,-12.292557 0.47051,-13.768111 1.72716,-3.300036 0.48759,-10.908032 -0.25865,-9.476254 -5.55819,-6.601766 1.43263,-10.981104 0.60073,-1.565498 -5.04588,-10.365462 -8.06146,-13.381044 -2.8999,-2.899896 -8.1313,-6.145443 -10.34722,-6.173252 -13.61128,-0.03941 -9.39965,41.589762 -2.45347,71.554084 5.76921,-3.21224 18.3378,-10.784784 18.72197,-17.818095 z"
     id="path988"
     inkscape:connector-curvature="0"
     sodipodi:nodetypes="cssssssssssssssscscscsssscscsssssscssscccssssscscccsssscccccssscscssscssscccccccccccccccc" />
  <path
     style="fill:#474847;stroke-width:0.63999999"
     d="m 119.1098,131.582 c -0.704,-0.39321 -1.424,-0.83931 -1.6,-0.99135 -0.176,-0.15204 -0.464,-4.3206 -0.64,-9.26348 l -0.32,-8.98705 -4.8,-1.69629 C 102.16592,107.25694 95.898634,100.98315 92.448823,91.322785 91.089124,87.515265 90.965898,85.988891 90.758621,70.385857 90.536893,53.695033 90.548919,53.512279 92.213092,48.285943 96.153796,35.910142 106.32203,27.827954 119.07494,26.934902 c 14.32746,-1.003315 26.91735,7.728675 31.1273,21.58902 1.22555,4.034861 1.30176,5.600802 1.07822,22.156822 -0.27515,20.378137 -0.40079,21.004544 -5.78759,28.855897 -4.26843,6.221319 -8.45008,9.023659 -18.86307,12.641119 -0.58505,0.20324 -0.8,2.52664 -0.8,8.64709 0,8.03247 -0.0632,8.43238 -1.57091,9.94009 -1.70369,1.70369 -3.1506,1.93329 -5.14909,0.81706 z m -2.24,-61.928373 c 0,-22.580197 -0.21608,-33.37578 -0.67372,-33.658611 -1.11474,-0.688948 -7.64775,2.900889 -10.35389,5.68938 -2.91855,3.007371 -5.61239,7.956053 -5.61239,10.310182 0,1.506112 0.21594,1.621972 3.04,1.631076 1.672,0.0054 3.38565,0.22952 3.80812,0.498067 1.3246,0.842003 1.98072,3.51738 1.32437,5.400198 -0.60391,1.732377 -2.52699,2.616664 -6.89249,3.169364 -2.503217,0.316924 -2.011313,2.088971 0.64,2.30556 4.97634,0.406528 7.58423,2.997152 6.35693,6.314835 -0.69635,1.882426 -1.67612,2.385434 -5.39693,2.770778 -2.66287,0.275769 -3.199998,0.546252 -3.199998,1.611398 0,0.956557 0.485168,1.324346 1.919998,1.455494 4.9754,0.454759 6.72,1.667213 6.72,4.670221 0,2.69833 -2.01226,4.434285 -5.14008,4.434285 -3.31118,0 -3.794356,1.180301 -1.99735,4.879072 2.72873,5.616544 9.93403,11.646624 14.01743,11.731124 l 1.44,0.0298 z m 13.95395,31.706093 c 1.66727,-0.84486 4.41406,-3.014298 6.10399,-4.820967 3.13329,-3.349741 5.92276,-8.509139 5.2175,-9.650278 -0.21504,-0.347943 -1.59799,-0.637031 -3.07321,-0.642419 -3.0443,-0.01114 -3.78634,-0.372135 -4.82642,-2.348128 -1.81763,-3.453216 0.2278,-6.087226 5.1074,-6.577069 2.89512,-0.290631 3.43679,-0.546746 3.43679,-1.625005 0,-1.096077 -0.53752,-1.327789 -3.74077,-1.612563 -4.00379,-0.355943 -5.53923,-1.51984 -5.53923,-4.198861 0,-2.630739 2.10582,-4.347936 5.79255,-4.723571 1.86761,-0.190285 3.50447,-0.703616 3.65002,-1.144666 0.30894,-0.936257 -0.36992,-1.201114 -4.4947,-1.753597 -3.5208,-0.471584 -5.35567,-2.454828 -4.69746,-5.077326 0.63879,-2.545147 2.14686,-3.569416 5.25539,-3.569416 1.91205,0 2.97275,-0.308472 3.21293,-0.934385 0.54255,-1.413864 -2.49574,-7.508779 -5.28524,-10.602366 -2.39785,-2.659258 -9.48185,-6.676112 -10.5785,-5.998349 -0.62929,0.388921 -0.73595,65.760796 -0.10832,66.388426 0.68244,0.68245 1.3522,0.51975 4.56728,-1.10946 z"
     id="path986"
     inkscape:connector-curvature="0"
     sodipodi:nodetypes="ssscsssssssccsssscsscccscccscsssscscsscsssssccscsccscc" />
  <g
     id="g917">
    <path
       inkscape:connector-curvature="0"
       id="path858"
       style="font-style:normal;font-variant:normal;font-weight:600;font-stretch:normal;font-size:42.66666794px;line-height:125%;font-family:'Linux Libertine';-inkscape-font-specification:'Linux Libertine Semi-Bold';text-align:center;letter-spacing:0px;word-spacing:0px;text-anchor:middle;fill:#393939;fill-opacity:1;stroke:none;stroke-width:1px;stroke-linecap:butt;stroke-linejoin:miter;stroke-opacity:1"
       d="m 10.154913,135.72991 v 21.20534 c 0,1.32266 -0.2560004,1.70666 -1.2800004,1.70666 H 7.5095792 c -0.512,0 -0.6826667,0.21334 -0.6826667,0.512 v 0.85334 l 0.1706667,0.0853 c 0,0 3.3279998,-0.0853 5.0346668,-0.0853 H 26.70958 c 0.08533,-2.38934 0.554666,-5.07734 1.024,-7.38134 l -1.664,-0.34133 c -0.682667,2.60267 -2.218667,5.76 -5.589334,5.76 h -3.669333 c -0.896,0 -1.450667,-0.68267 -1.450667,-1.96267 v -20.352 c 0,-1.19466 0.554667,-1.87733 2.304,-1.87733 h 0.64 c 0.170667,0 0.298667,-0.128 0.298667,-0.34133 v -1.024 l -0.08533,-0.0853 c 0,0 -4.266667,0.0853 -5.760001,0.0853 -1.664,0 -5.8453331,-0.0853 -5.8453331,-0.0853 l -0.085333,0.0853 v 1.024 c 0,0.21333 0.1706667,0.34133 0.3840001,0.34133 h 0.5973333 c 1.6640001,0 2.3466671,0.512 2.3466671,1.87733 z" />
    <path
       inkscape:connector-curvature="0"
       id="path860"
       style="font-style:normal;font-variant:normal;font-weight:600;font-stretch:normal;font-size:42.66666794px;line-height:125%;font-family:'Linux Libertine';-inkscape-font-specification:'Linux Libertine Semi-Bold';text-align:center;letter-spacing:0px;word-spacing:0px;text-anchor:middle;fill:#393939;fill-opacity:1;stroke:none;stroke-width:1px;stroke-linecap:butt;stroke-linejoin:miter;stroke-opacity:1"
       d="m 37.845503,146.31125 c 0,-2.13334 0.128,-5.248 0.128,-5.248 0,-0.0853 -0.213334,-0.128 -0.298667,-0.128 -1.365333,0.42666 -4.352,0.896 -7.296,1.28 l 0.08533,1.28 1.749333,0.17066 c 0.597334,0.0427 0.938667,0.512 0.938667,2.64534 v 10.41066 c 0,1.19467 -0.682667,1.62134 -2.005333,1.83467 l -0.512,0.0853 c -0.170667,0.0427 -0.298667,0.128 -0.298667,0.384 v 0.98134 l 0.08533,0.0853 c 0,0 3.456001,-0.0853 4.992001,-0.0853 1.664,0 5.12,0.0853 5.12,0.0853 l 0.08533,-0.0853 v -0.98131 c 0,-0.256 -0.213333,-0.34133 -0.341333,-0.384 l -0.426667,-0.0853 c -1.28,-0.21333 -2.005333,-0.64 -2.005333,-1.83467 z m -4.949334,-10.66667 c 0,1.408 1.152,2.56 2.56,2.56 1.408,0 2.56,-1.152 2.56,-2.56 0,-1.408 -1.152,-2.56 -2.56,-2.56 -1.408,0 -2.56,1.152 -2.56,2.56 z" />
    <path
       inkscape:connector-curvature="0"
       id="path862"
       style="font-style:normal;font-variant:normal;font-weight:600;font-stretch:normal;font-size:42.66666794px;line-height:125%;font-family:'Linux Libertine';-inkscape-font-specification:'Linux Libertine Semi-Bold';text-align:center;letter-spacing:0px;word-spacing:0px;text-anchor:middle;fill:#393939;fill-opacity:1;stroke:none;stroke-width:1px;stroke-linecap:butt;stroke-linejoin:miter;stroke-opacity:1"
       d="m 49.920139,143.75125 h -0.08533 l 0.08533,-2.688 c 0,-0.0853 -0.213333,-0.128 -0.298666,-0.128 -1.365334,0.42666 -4.181334,0.896 -7.168001,1.28 l 0.08533,1.45066 1.749333,0.17067 c 0.597334,0.0427 0.938667,0.34133 0.938667,2.47467 v 10.45333 c 0,1.19467 -0.682667,1.49333 -2.048,1.792 l -0.384,0.0853 c -0.213334,0.0853 -0.341334,0.128 -0.341334,0.384 v 0.98134 l 0.08533,0.0853 c 0,0 3.456,-0.0853 4.949333,-0.0853 1.664,0 4.906667,0.0853 4.906667,0.0853 l 0.08533,-0.0853 v -0.98131 c 0,-0.256 -0.213333,-0.34133 -0.341333,-0.384 l -0.170667,-0.0427 c -1.322666,-0.29867 -2.048,-0.68267 -2.048,-1.83467 v -11.30663 c 2.090667,-1.32266 3.882667,-2.00533 5.162667,-2.00533 1.536,0 1.792,1.28 1.792,4.18133 v 9.13067 c 0,1.19467 -0.725333,1.536 -2.048,1.83467 l -0.170667,0.0427 c -0.213333,0.0853 -0.341333,0.128 -0.341333,0.384 v 0.98134 l 0.08533,0.0853 c 0,0 3.242667,-0.0853 4.778667,-0.0853 1.664,0 5.077334,0.0853 5.077334,0.0853 l 0.08533,-0.0853 v -0.98138 c 0,-0.256 -0.213333,-0.34133 -0.341333,-0.384 l -0.341334,-0.0853 c -1.322666,-0.29867 -2.090666,-0.59733 -2.090666,-1.792 v -8.832 c 0,-3.88267 -0.64,-6.86933 -5.205334,-6.86933 -2.048,0 -4.266667,1.024 -6.442667,2.688 z" />
    <path
       inkscape:connector-curvature="0"
       id="path864"
       style="font-style:normal;font-variant:normal;font-weight:600;font-stretch:normal;font-size:42.66666794px;line-height:125%;font-family:'Linux Libertine';-inkscape-font-specification:'Linux Libertine Semi-Bold';text-align:center;letter-spacing:0px;word-spacing:0px;text-anchor:middle;fill:#393939;fill-opacity:1;stroke:none;stroke-width:1px;stroke-linecap:butt;stroke-linejoin:miter;stroke-opacity:1"
       d="m 78.378797,147.88991 c 0,4.096 -1.706667,4.77867 -2.816,4.77867 -2.645334,0 -3.498667,-3.328 -3.498667,-5.504 0,-3.15733 1.28,-4.608 2.944,-4.608 2.005334,0 3.370667,1.96267 3.370667,5.33333 z m -5.504,12.75734 c 0.469333,0 1.152,0 1.792,-0.0427 0.554667,-0.0427 0.938667,-0.0853 1.322667,-0.0853 1.92,0 6.229333,0.128 6.229333,2.944 0,3.2 -4.096,4.90666 -7.296,4.90666 -1.194667,0 -4.394667,-1.23733 -4.394667,-4.26666 0,-1.45067 0.04267,-2.688 0.938667,-3.62667 0.426666,0.17067 0.896,0.17067 1.408,0.17067 z m 11.264,-16.98134 c 1.194667,0 1.877334,-0.68266 1.877334,-1.70666 0,-0.81067 -0.682667,-1.87734 -2.304001,-1.87734 -1.152,0 -3.072,0.68267 -4.309333,1.792 -0.768,-0.42666 -2.090667,-0.81066 -4.010667,-0.81066 -4.096,0 -7.850667,2.51733 -7.850667,6.48533 0,2.09067 1.024,4.26667 2.602667,5.376 -1.28,1.19467 -2.218667,2.60267 -2.218667,3.92533 0,1.36534 0.853334,2.38934 2.048,3.11467 -2.218666,1.49333 -3.456,3.328 -3.456,4.992 0,3.79733 3.712,5.20533 7.210667,5.20533 5.930667,0 12.373334,-3.11466 12.373334,-7.808 0,-1.62133 -1.706667,-4.736 -8.661334,-4.736 -1.621333,0 -3.626667,0.29867 -4.010667,0.29867 -0.768,0 -1.92,-0.512 -1.92,-2.21867 0,-0.68266 0.04267,-1.57866 0.256,-2.09066 0.896,0.42666 2.261334,0.64 3.584001,0.64 4.010666,0 7.637333,-2.304 7.637333,-6.48534 0,-2.38933 -0.853333,-3.88266 -2.304,-5.07733 0.341333,-0.42667 0.810667,-0.768 1.237333,-0.768 0.384,0 0.512,0.256 0.64,0.512 0.170667,0.55467 0.512,1.23733 1.578667,1.23733 z" />
    <path
       inkscape:connector-curvature="0"
       id="path866"
       style="font-style:normal;font-variant:normal;font-weight:600;font-stretch:normal;font-size:42.66666794px;line-height:125%;font-family:'Linux Libertine';-inkscape-font-specification:'Linux Libertine Semi-Bold';text-align:center;letter-spacing:0px;word-spacing:0px;text-anchor:middle;fill:#393939;fill-opacity:1;stroke:none;stroke-width:1px;stroke-linecap:butt;stroke-linejoin:miter;stroke-opacity:1"
       d="m 106.45344,155.10058 v -10.19733 c 0,-1.70667 0.0853,-3.49867 0.0853,-3.49867 0,0 -1.664,0.0853 -2.56,0.0853 -1.152,0 -4.735998,-0.0853 -4.735998,-0.0853 l -0.170667,0.0853 v 1.28 l 0.170667,0.0853 1.322668,0.0853 c 0.768,0 1.19466,0.68267 1.19466,2.048 v 11.73343 c -1.57866,1.36534 -3.370662,1.57867 -4.309328,1.57867 -0.896,0 -2.304,-0.768 -2.304,-4.352 v -9.04533 c 0,-1.57867 0.04267,-3.49867 0.04267,-3.49867 0,0 -1.877333,0.0853 -2.474666,0.0853 -1.365334,0 -4.736001,-0.0853 -4.736001,-0.0853 l -0.213333,0.0853 v 1.28 l 0.128,0.0853 1.322667,0.0853 c 0.981333,0.0853 1.237333,0.768 1.237333,2.048 v 9.55733 c 0,2.98667 0.981334,5.888 5.930667,5.888 1.578667,0 3.498667,-0.64 5.504001,-1.92 l -0.128,2.00534 h 1.45067 c 1.10933,-0.64 2.13333,-1.19467 6.016,-1.70667 l -0.0427,-1.32267 c -2.304,-0.128 -2.73067,-1.10933 -2.73067,-2.38933 z" />
    <path
       inkscape:connector-curvature="0"
       id="path868"
       style="font-style:normal;font-variant:normal;font-weight:600;font-stretch:normal;font-size:42.66666794px;line-height:125%;font-family:'Linux Libertine';-inkscape-font-specification:'Linux Libertine Semi-Bold';text-align:center;letter-spacing:0px;word-spacing:0px;text-anchor:middle;fill:#393939;fill-opacity:1;stroke:none;stroke-width:1px;stroke-linecap:butt;stroke-linejoin:miter;stroke-opacity:1"
       d="m 122.1974,157.95925 h 0.0853 c 0.512,1.664 1.62133,2.47466 4.18133,2.47466 2.34667,0 3.968,-1.83466 3.968,-2.048 0,-0.29866 -0.384,-0.85333 -0.55467,-0.85333 -0.256,0 -0.29866,0.68267 -1.32266,0.68267 -1.664,0 -1.70667,-1.62134 -1.70667,-3.584 v -6.18667 c 0,-6.144 -3.49867,-7.38133 -6.99733,-7.38133 -3.11467,0 -7.59467,2.21866 -7.59467,4.77866 0,1.10934 0.46933,1.792 2.00533,1.792 1.19467,0 2.21867,-1.024 2.21867,-1.62133 0,-0.512 -0.256,-0.98133 -0.256,-1.83467 0,-0.93866 1.408,-1.49333 3.02933,-1.49333 1.792,0 2.98667,0.93867 2.98667,6.35733 l -3.072,0.896 c -4.43733,1.32267 -7.424,2.64534 -7.424,6.016 0,2.944 1.408,4.48 5.12,4.48 1.792,0 3.66933,-1.024 5.33333,-2.47466 z m 0.0427,-1.57867 c -1.06667,0.85333 -2.56,1.70667 -3.328,1.70667 -2.048,0 -2.688,-1.28 -2.688,-2.77334 0,-1.74933 0.55467,-3.02933 3.584,-3.92533 l 2.432,-0.72533 z" />
    <path
       inkscape:connector-curvature="0"
       id="path870"
       style="font-style:normal;font-variant:normal;font-weight:normal;font-stretch:normal;font-size:66.66666412px;line-height:125%;font-family:Noto;-inkscape-font-specification:Noto;text-align:center;letter-spacing:0px;word-spacing:0px;text-anchor:middle;fill:#3366cc;fill-opacity:1;stroke:none;stroke-width:1px;stroke-linecap:butt;stroke-linejoin:miter;stroke-opacity:1"
       d="m 145.45066,135.72991 v 21.20534 c 0,1.32266 -0.256,1.70666 -1.28,1.70666 h -1.36533 c -0.512,0 -0.68267,0.21334 -0.68267,0.512 v 0.85334 l 0.17067,0.0853 c 0,0 3.328,-0.0853 5.03466,-0.0853 h 14.67734 c 0.0853,-2.38934 0.55466,-5.07734 1.024,-7.38134 l -1.664,-0.34133 c -0.68267,2.60267 -2.21867,5.76 -5.58934,5.76 h -3.66933 c -0.896,0 -1.45067,-0.68267 -1.45067,-1.96267 v -20.352 c 0,-1.19466 0.55467,-1.87733 2.304,-1.87733 h 0.64 c 0.17067,0 0.29867,-0.128 0.29867,-0.34133 v -1.024 l -0.0853,-0.0853 c 0,0 -4.26667,0.0853 -5.76,0.0853 -1.664,0 -5.84534,-0.0853 -5.84534,-0.0853 l -0.0853,0.0853 v 1.024 c 0,0.21333 0.17067,0.34133 0.384,0.34133 h 0.59733 c 1.664,0 2.34667,0.512 2.34667,1.87733 z" />
    <path
       inkscape:connector-curvature="0"
       id="path872"
       style="font-style:normal;font-variant:normal;font-weight:normal;font-stretch:normal;font-size:66.66666412px;line-height:125%;font-family:Noto;-inkscape-font-specification:Noto;text-align:center;letter-spacing:0px;word-spacing:0px;text-anchor:middle;fill:#3366cc;fill-opacity:1;stroke:none;stroke-width:1px;stroke-linecap:butt;stroke-linejoin:miter;stroke-opacity:1"
       d="m 173.14125,146.31125 c 0,-2.13334 0.128,-5.248 0.128,-5.248 0,-0.0853 -0.21333,-0.128 -0.29867,-0.128 -1.36533,0.42666 -4.352,0.896 -7.296,1.28 l 0.0853,1.28 1.74934,0.17066 c 0.59733,0.0427 0.93867,0.512 0.93867,2.64534 v 10.41066 c 0,1.19467 -0.68267,1.62134 -2.00534,1.83467 l -0.512,0.0853 c -0.17067,0.0427 -0.29867,0.128 -0.29867,0.384 v 0.98134 l 0.0853,0.0853 c 0,0 3.456,-0.0853 4.992,-0.0853 1.664,0 5.12,0.0853 5.12,0.0853 l 0.0853,-0.0853 v -0.98131 c 0,-0.256 -0.21333,-0.34133 -0.34133,-0.384 l -0.42667,-0.0853 c -1.28,-0.21333 -2.00533,-0.64 -2.00533,-1.83467 z m -4.94934,-10.66667 c 0,1.408 1.15201,2.56 2.56001,2.56 1.408,0 2.56,-1.152 2.56,-2.56 0,-1.408 -1.152,-2.56 -2.56,-2.56 -1.408,0 -2.56001,1.152 -2.56001,2.56 z" />
    <path
       inkscape:connector-curvature="0"
       id="path874"
       style="font-style:normal;font-variant:normal;font-weight:normal;font-stretch:normal;font-size:66.66666412px;line-height:125%;font-family:Noto;-inkscape-font-specification:Noto;text-align:center;letter-spacing:0px;word-spacing:0px;text-anchor:middle;fill:#3366cc;fill-opacity:1;stroke:none;stroke-width:1px;stroke-linecap:butt;stroke-linejoin:miter;stroke-opacity:1"
       d="m 184.19189,157.61791 v -13.056 c 1.408,-0.896 2.26133,-1.32266 3.28533,-1.32266 2.09067,0 3.92533,3.2 3.92533,7.38133 0,4.736 -1.70666,8.064 -5.07733,8.064 -0.768,0 -1.408,-0.256 -2.13333,-1.06667 z m -4.69334,-21.632 v 20.864 c 0,1.62134 -0.0427,2.432 -0.17066,3.456 l 1.45066,0.256 1.28,-2.26133 c 1.024,1.19467 2.60267,2.13333 4.48,2.13333 4.736,0 9.77067,-3.968 9.77067,-10.79466 0,-5.248 -3.584,-8.576 -7.76533,-8.576 -1.62134,0 -3.11467,0.896 -4.352,1.792 v -7.72267 c 0,-2.77333 0.128,-4.48 0.128,-4.48 0,-0.29867 -0.29867,-0.42667 -0.68267,-0.42667 -1.10933,0.42667 -5.46134,0.98134 -7.168,1.10934 l 0.128,1.23733 c 0,0.128 0.0853,0.21333 0.256,0.21333 l 1.36533,0.0853 c 0.85334,0 1.28,0.34133 1.28,3.11466 z" />
    <path
       inkscape:connector-curvature="0"
       id="path876"
       style="font-style:normal;font-variant:normal;font-weight:normal;font-stretch:normal;font-size:66.66666412px;line-height:125%;font-family:Noto;-inkscape-font-specification:Noto;text-align:center;letter-spacing:0px;word-spacing:0px;text-anchor:middle;fill:#3366cc;fill-opacity:1;stroke:none;stroke-width:1px;stroke-linecap:butt;stroke-linejoin:miter;stroke-opacity:1"
       d="m 206.71985,143.75125 h -0.0853 l 0.0853,-2.688 c 0,-0.0853 -0.21333,-0.128 -0.29867,-0.128 -1.36533,0.42666 -4.18133,0.896 -7.168,1.28 l 0.0853,1.45066 1.74933,0.17067 c 0.59733,0.0427 0.93867,0.34133 0.93867,2.47467 v 10.41066 c 0,1.152 -0.72534,1.57867 -2.048,1.83467 l -0.42667,0.0853 c -0.17067,0.0427 -0.29867,0.128 -0.29867,0.384 v 0.98134 l 0.0853,0.0853 c 0,0 3.41333,-0.0853 4.94933,-0.0853 1.664,0 5.07733,0.0853 5.07733,0.0853 l 0.0853,-0.0853 v -0.98131 c 0,-0.256 -0.21334,-0.34133 -0.34134,-0.384 l -0.34133,-0.0853 c -1.32267,-0.29867 -2.048,-0.64 -2.048,-1.83467 v -9.00266 c 0,-1.49334 0.46933,-2.51734 1.10933,-2.98667 0.512,-0.34133 0.85334,-0.55467 1.536,-0.55467 0.768,0 1.45067,1.70667 3.15734,1.70667 1.23733,0 2.13333,-1.06667 2.13333,-2.432 0,-1.10933 -0.93867,-2.38933 -2.47467,-2.38933 -1.49333,0 -3.328,0.512 -5.46133,2.688 z" />
    <path
       inkscape:connector-curvature="0"
       id="path878"
       style="font-style:normal;font-variant:normal;font-weight:normal;font-stretch:normal;font-size:66.66666412px;line-height:125%;font-family:Noto;-inkscape-font-specification:Noto;text-align:center;letter-spacing:0px;word-spacing:0px;text-anchor:middle;fill:#3366cc;fill-opacity:1;stroke:none;stroke-width:1px;stroke-linecap:butt;stroke-linejoin:miter;stroke-opacity:1"
       d="m 221.35442,147.84725 c 0.59733,-4.352 3.11467,-4.992 4.01067,-4.992 1.152,0 2.90133,1.10933 2.90133,4.52266 0,0.256 0,0.384 -0.0853,0.46934 z m 10.368,7.50933 c -1.57867,1.92 -3.15733,2.688 -4.77867,2.688 -3.328,0 -5.80266,-3.2 -5.80266,-7.38133 v -1.10934 h 10.368 c 1.024,0 1.664,-0.29866 1.664,-0.896 0,-3.62666 -1.49334,-7.59466 -7.76534,-7.59466 -4.48,0 -9.17333,3.968 -9.17333,10.496 0,4.69333 2.56,8.87466 9.04533,8.87466 2.944,0 5.93067,-0.98133 7.50934,-4.18133 z" />
  </g>
  <text
     id="text1001-3"
     y="243.91719"
     x="125.38815"
     style="font-style:normal;font-variant:normal;font-weight:normal;font-stretch:normal;font-size:66.66666412px;line-height:125%;font-family:Noto;-inkscape-font-specification:Noto;text-align:center;letter-spacing:0px;word-spacing:0px;text-anchor:middle;fill:#393939;fill-opacity:1;stroke:none;stroke-width:1px;stroke-linecap:butt;stroke-linejoin:miter;stroke-opacity:1"
     xml:space="preserve"><tspan
       style="font-style:normal;font-variant:normal;font-weight:600;font-stretch:normal;font-size:42.66666794px;font-family:'Linux Libertine';-inkscape-font-specification:'Linux Libertine Semi-Bold';fill:#393939;fill-opacity:1"
       y="243.91719"
       x="125.38815"
       id="tspan999-6"
       sodipodi:role="line">Lingua <tspan
   id="tspan1579-7"
   style="fill:#3366cc;fill-opacity:1">Libre</tspan></tspan></text>
</svg>
